<?xml version="1.0" encoding="UTF-8" standalone="no"?>
<!DOCTYPE svg PUBLIC "-//W3C//DTD SVG 1.1//EN"
 "http://www.w3.org/Graphics/SVG/1.1/DTD/svg11.dtd">
<!-- Generated by graphviz version 2.47.3 (20210619.1520)
 -->
<!-- Title: dependencies Pages: 1 -->
<svg width="5413pt" height="247pt"
 viewBox="0.00 0.00 5413.00 246.80" xmlns="http://www.w3.org/2000/svg" xmlns:xlink="http://www.w3.org/1999/xlink">
<g id="graph0" class="graph" transform="scale(1 1) rotate(0) translate(4 242.8)">
<title>dependencies</title>
<polygon fill="white" stroke="transparent" points="-4,4 -4,-242.8 5409,-242.8 5409,4 -4,4"/>
<text text-anchor="middle" x="2702.5" y="-8.2" font-family="sans-serif" font-size="14.00">dependencies</text>
<g id="clust1" class="cluster">
<title>cluster_AppModule</title>
<polygon fill="none" stroke="black" stroke-dasharray="1,5" points="8,-32.8 8,-230.8 5397,-230.8 5397,-32.8 8,-32.8"/>
</g>
<g id="clust36" class="cluster">
<title>cluster_AppModule_providers</title>
<polygon fill="none" stroke="black" points="5255,-40.8 5255,-92.8 5389,-92.8 5389,-40.8 5255,-40.8"/>
</g>
<g id="clust33" class="cluster">
<title>cluster_AppModule_imports</title>
<polygon fill="none" stroke="black" points="5103,-40.8 5103,-92.8 5247,-92.8 5247,-40.8 5103,-40.8"/>
</g>
<g id="clust35" class="cluster">
<title>cluster_AppModule_bootstrap</title>
<polygon fill="none" stroke="black" points="2577,-170.8 2577,-222.8 2701,-222.8 2701,-170.8 2577,-170.8"/>
</g>
<g id="clust2" class="cluster">
<title>cluster_AppModule_declarations</title>
<polygon fill="none" stroke="black" points="16,-40.8 16,-92.8 5095,-92.8 5095,-40.8 16,-40.8"/>
</g>
<!-- AppComponent -->
<g id="node1" class="node">
<title>AppComponent</title>
<polygon fill="#ffffb3" stroke="black" points="5086.94,-84.8 4981.06,-84.8 4981.06,-48.8 5086.94,-48.8 5086.94,-84.8"/>
<text text-anchor="middle" x="5034" y="-62.6" font-family="Times,serif" font-size="14.00">AppComponent</text>
</g>
<!-- AppModule -->
<g id="node31" class="node">
<title>AppModule</title>
<polygon fill="#8dd3c7" stroke="black" points="2680.66,-149.8 2677.66,-153.8 2656.66,-153.8 2653.66,-149.8 2597.34,-149.8 2597.34,-113.8 2680.66,-113.8 2680.66,-149.8"/>
<text text-anchor="middle" x="2639" y="-127.6" font-family="Times,serif" font-size="14.00">AppModule</text>
</g>
<!-- AppComponent&#45;&gt;AppModule -->
<g id="edge1" class="edge">
<title>AppComponent&#45;&gt;AppModule</title>
<path fill="none" stroke="black" d="M5034,-85.05C5034,-107.82 5034,-143.8 5034,-143.8 5034,-143.8 2690.82,-143.8 2690.82,-143.8"/>
<polygon fill="black" stroke="black" points="2690.82,-140.3 2680.82,-143.8 2690.82,-147.3 2690.82,-140.3"/>
</g>
<!-- AtribuirCargoComponent -->
<g id="node2" class="node">
<title>AtribuirCargoComponent</title>
<polygon fill="#ffffb3" stroke="black" points="4963.14,-84.8 4802.86,-84.8 4802.86,-48.8 4963.14,-48.8 4963.14,-84.8"/>
<text text-anchor="middle" x="4883" y="-62.6" font-family="Times,serif" font-size="14.00">AtribuirCargoComponent</text>
</g>
<!-- AtribuirCargoComponent&#45;&gt;AppModule -->
<g id="edge2" class="edge">
<title>AtribuirCargoComponent&#45;&gt;AppModule</title>
<path fill="none" stroke="black" d="M4883,-85.09C4883,-107.01 4883,-140.8 4883,-140.8 4883,-140.8 2690.84,-140.8 2690.84,-140.8"/>
<polygon fill="black" stroke="black" points="2690.84,-137.3 2680.84,-140.8 2690.84,-144.3 2690.84,-137.3"/>
</g>
<!-- AtribuirCargoMentorComponent -->
<g id="node3" class="node">
<title>AtribuirCargoMentorComponent</title>
<polygon fill="#ffffb3" stroke="black" points="4784.85,-84.8 4583.15,-84.8 4583.15,-48.8 4784.85,-48.8 4784.85,-84.8"/>
<text text-anchor="middle" x="4684" y="-62.6" font-family="Times,serif" font-size="14.00">AtribuirCargoMentorComponent</text>
</g>
<!-- AtribuirCargoMentorComponent&#45;&gt;AppModule -->
<g id="edge3" class="edge">
<title>AtribuirCargoMentorComponent&#45;&gt;AppModule</title>
<path fill="none" stroke="black" d="M4684,-84.97C4684,-106.3 4684,-138.8 4684,-138.8 4684,-138.8 2690.78,-138.8 2690.78,-138.8"/>
<polygon fill="black" stroke="black" points="2690.78,-135.3 2680.78,-138.8 2690.78,-142.3 2690.78,-135.3"/>
</g>
<!-- BonificacaoMentorComponent -->
<g id="node4" class="node">
<title>BonificacaoMentorComponent</title>
<polygon fill="#ffffb3" stroke="black" points="4565.18,-84.8 4374.82,-84.8 4374.82,-48.8 4565.18,-48.8 4565.18,-84.8"/>
<text text-anchor="middle" x="4470" y="-62.6" font-family="Times,serif" font-size="14.00">BonificacaoMentorComponent</text>
</g>
<!-- BonificacaoMentorComponent&#45;&gt;AppModule -->
<g id="edge4" class="edge">
<title>BonificacaoMentorComponent&#45;&gt;AppModule</title>
<path fill="none" stroke="black" d="M4470,-84.83C4470,-105.57 4470,-136.8 4470,-136.8 4470,-136.8 2690.68,-136.8 2690.68,-136.8"/>
<polygon fill="black" stroke="black" points="2690.68,-133.3 2680.68,-136.8 2690.68,-140.3 2690.68,-133.3"/>
</g>
<!-- CadastrarBonificacaoComponent -->
<g id="node5" class="node">
<title>CadastrarBonificacaoComponent</title>
<polygon fill="#ffffb3" stroke="black" points="4357.11,-84.8 4154.89,-84.8 4154.89,-48.8 4357.11,-48.8 4357.11,-84.8"/>
<text text-anchor="middle" x="4256" y="-62.6" font-family="Times,serif" font-size="14.00">CadastrarBonificacaoComponent</text>
</g>
<!-- CadastrarBonificacaoComponent&#45;&gt;AppModule -->
<g id="edge5" class="edge">
<title>CadastrarBonificacaoComponent&#45;&gt;AppModule</title>
<path fill="none" stroke="black" d="M4256,-85.02C4256,-105.17 4256,-134.8 4256,-134.8 4256,-134.8 2691.01,-134.8 2691.01,-134.8"/>
<polygon fill="black" stroke="black" points="2691.01,-131.3 2681.01,-134.8 2691.01,-138.3 2691.01,-131.3"/>
</g>
<!-- CadastrarCargosComponent -->
<g id="node6" class="node">
<title>CadastrarCargosComponent</title>
<polygon fill="#ffffb3" stroke="black" points="4136.13,-84.8 3961.87,-84.8 3961.87,-48.8 4136.13,-48.8 4136.13,-84.8"/>
<text text-anchor="middle" x="4049" y="-62.6" font-family="Times,serif" font-size="14.00">CadastrarCargosComponent</text>
</g>
<!-- CadastrarCargosComponent&#45;&gt;AppModule -->
<g id="edge6" class="edge">
<title>CadastrarCargosComponent&#45;&gt;AppModule</title>
<path fill="none" stroke="black" d="M4049,-84.91C4049,-104.14 4049,-131.8 4049,-131.8 4049,-131.8 2690.82,-131.8 2690.82,-131.8"/>
<polygon fill="black" stroke="black" points="2690.82,-128.3 2680.82,-131.8 2690.82,-135.3 2690.82,-128.3"/>
</g>
<!-- CadastrarFuncComponent -->
<g id="node7" class="node">
<title>CadastrarFuncComponent</title>
<polygon fill="#ffffb3" stroke="black" points="3943.47,-84.8 3780.53,-84.8 3780.53,-48.8 3943.47,-48.8 3943.47,-84.8"/>
<text text-anchor="middle" x="3862" y="-62.6" font-family="Times,serif" font-size="14.00">CadastrarFuncComponent</text>
</g>
<!-- CadastrarFuncComponent&#45;&gt;AppModule -->
<g id="edge7" class="edge">
<title>CadastrarFuncComponent&#45;&gt;AppModule</title>
<path fill="none" stroke="black" d="M3862,-85.02C3862,-103.63 3862,-129.8 3862,-129.8 3862,-129.8 2690.74,-129.8 2690.74,-129.8"/>
<polygon fill="black" stroke="black" points="2690.74,-126.3 2680.74,-129.8 2690.74,-133.3 2690.74,-126.3"/>
</g>
<!-- CadastrarMentorComponent -->
<g id="node8" class="node">
<title>CadastrarMentorComponent</title>
<polygon fill="#ffffb3" stroke="black" points="3762.18,-84.8 3585.82,-84.8 3585.82,-48.8 3762.18,-48.8 3762.18,-84.8"/>
<text text-anchor="middle" x="3674" y="-62.6" font-family="Times,serif" font-size="14.00">CadastrarMentorComponent</text>
</g>
<!-- CadastrarMentorComponent&#45;&gt;AppModule -->
<g id="edge8" class="edge">
<title>CadastrarMentorComponent&#45;&gt;AppModule</title>
<path fill="none" stroke="black" d="M3674,-85.1C3674,-103.07 3674,-127.8 3674,-127.8 3674,-127.8 2690.86,-127.8 2690.86,-127.8"/>
<polygon fill="black" stroke="black" points="2690.86,-124.3 2680.86,-127.8 2690.86,-131.3 2690.86,-124.3"/>
</g>
<!-- CargosComponent -->
<g id="node9" class="node">
<title>CargosComponent</title>
<polygon fill="#ffffb3" stroke="black" points="3567.49,-84.8 3446.51,-84.8 3446.51,-48.8 3567.49,-48.8 3567.49,-84.8"/>
<text text-anchor="middle" x="3507" y="-62.6" font-family="Times,serif" font-size="14.00">CargosComponent</text>
</g>
<!-- CargosComponent&#45;&gt;AppModule -->
<g id="edge9" class="edge">
<title>CargosComponent&#45;&gt;AppModule</title>
<path fill="none" stroke="black" d="M3507,-84.82C3507,-102.17 3507,-125.8 3507,-125.8 3507,-125.8 2690.87,-125.8 2690.87,-125.8"/>
<polygon fill="black" stroke="black" points="2690.87,-122.3 2680.87,-125.8 2690.87,-129.3 2690.87,-122.3"/>
</g>
<!-- CpfPipe -->
<g id="node10" class="node">
<title>CpfPipe</title>
<polygon fill="#ffffb3" stroke="black" points="3428.89,-84.8 3367.11,-84.8 3367.11,-48.8 3428.89,-48.8 3428.89,-84.8"/>
<text text-anchor="middle" x="3398" y="-62.6" font-family="Times,serif" font-size="14.00">CpfPipe</text>
</g>
<!-- CpfPipe&#45;&gt;AppModule -->
<g id="edge10" class="edge">
<title>CpfPipe&#45;&gt;AppModule</title>
<path fill="none" stroke="black" d="M3398,-84.83C3398,-101.2 3398,-122.8 3398,-122.8 3398,-122.8 2690.89,-122.8 2690.89,-122.8"/>
<polygon fill="black" stroke="black" points="2690.89,-119.3 2680.89,-122.8 2690.89,-126.3 2690.89,-119.3"/>
</g>
<!-- EditarBonificacaoComponent -->
<g id="node11" class="node">
<title>EditarBonificacaoComponent</title>
<polygon fill="#ffffb3" stroke="black" points="3348.68,-84.8 3165.32,-84.8 3165.32,-48.8 3348.68,-48.8 3348.68,-84.8"/>
<text text-anchor="middle" x="3257" y="-62.6" font-family="Times,serif" font-size="14.00">EditarBonificacaoComponent</text>
</g>
<!-- EditarBonificacaoComponent&#45;&gt;AppModule -->
<g id="edge11" class="edge">
<title>EditarBonificacaoComponent&#45;&gt;AppModule</title>
<path fill="none" stroke="black" d="M3257,-85.08C3257,-100.75 3257,-120.8 3257,-120.8 3257,-120.8 2690.99,-120.8 2690.99,-120.8"/>
<polygon fill="black" stroke="black" points="2690.99,-117.3 2680.99,-120.8 2690.99,-124.3 2690.99,-117.3"/>
</g>
<!-- EditarCargosComponent -->
<g id="node12" class="node">
<title>EditarCargosComponent</title>
<polygon fill="#ffffb3" stroke="black" points="3147.7,-84.8 2992.3,-84.8 2992.3,-48.8 3147.7,-48.8 3147.7,-84.8"/>
<text text-anchor="middle" x="3070" y="-62.6" font-family="Times,serif" font-size="14.00">EditarCargosComponent</text>
</g>
<!-- EditarCargosComponent&#45;&gt;AppModule -->
<g id="edge12" class="edge">
<title>EditarCargosComponent&#45;&gt;AppModule</title>
<path fill="none" stroke="black" d="M3070,-84.99C3070,-99.98 3070,-118.8 3070,-118.8 3070,-118.8 2690.72,-118.8 2690.72,-118.8"/>
<polygon fill="black" stroke="black" points="2690.72,-115.3 2680.72,-118.8 2690.72,-122.3 2690.72,-115.3"/>
</g>
<!-- EditarFuncComponent -->
<g id="node13" class="node">
<title>EditarFuncComponent</title>
<polygon fill="#ffffb3" stroke="black" points="2974.54,-84.8 2831.46,-84.8 2831.46,-48.8 2974.54,-48.8 2974.54,-84.8"/>
<text text-anchor="middle" x="2903" y="-62.6" font-family="Times,serif" font-size="14.00">EditarFuncComponent</text>
</g>
<!-- EditarFuncComponent&#45;&gt;AppModule -->
<g id="edge13" class="edge">
<title>EditarFuncComponent&#45;&gt;AppModule</title>
<path fill="none" stroke="black" d="M2903,-84.85C2903,-99.17 2903,-116.8 2903,-116.8 2903,-116.8 2690.83,-116.8 2690.83,-116.8"/>
<polygon fill="black" stroke="black" points="2690.83,-113.3 2680.83,-116.8 2690.83,-120.3 2690.83,-113.3"/>
</g>
<!-- EditarMentorComponent -->
<g id="node14" class="node">
<title>EditarMentorComponent</title>
<polygon fill="#ffffb3" stroke="black" points="2813.25,-84.8 2656.75,-84.8 2656.75,-48.8 2813.25,-48.8 2813.25,-84.8"/>
<text text-anchor="middle" x="2735" y="-62.6" font-family="Times,serif" font-size="14.00">EditarMentorComponent</text>
</g>
<!-- EditarMentorComponent&#45;&gt;AppModule -->
<g id="edge14" class="edge">
<title>EditarMentorComponent&#45;&gt;AppModule</title>
<path fill="none" stroke="black" d="M2668.73,-84.91C2668.73,-84.91 2668.73,-103.79 2668.73,-103.79"/>
<polygon fill="black" stroke="black" points="2665.23,-103.79 2668.73,-113.79 2672.23,-103.79 2665.23,-103.79"/>
</g>
<!-- ExcluirBonificacaoComponent -->
<g id="node15" class="node">
<title>ExcluirBonificacaoComponent</title>
<polygon fill="#ffffb3" stroke="black" points="2639.18,-84.8 2448.82,-84.8 2448.82,-48.8 2639.18,-48.8 2639.18,-84.8"/>
<text text-anchor="middle" x="2544" y="-62.6" font-family="Times,serif" font-size="14.00">ExcluirBonificacaoComponent</text>
</g>
<!-- ExcluirBonificacaoComponent&#45;&gt;AppModule -->
<g id="edge15" class="edge">
<title>ExcluirBonificacaoComponent&#45;&gt;AppModule</title>
<path fill="none" stroke="black" d="M2618.13,-84.91C2618.13,-84.91 2618.13,-103.79 2618.13,-103.79"/>
<polygon fill="black" stroke="black" points="2614.63,-103.79 2618.13,-113.79 2621.63,-103.79 2614.63,-103.79"/>
</g>
<!-- ExcluirCargosComponent -->
<g id="node16" class="node">
<title>ExcluirCargosComponent</title>
<polygon fill="#ffffb3" stroke="black" points="2431.2,-84.8 2268.8,-84.8 2268.8,-48.8 2431.2,-48.8 2431.2,-84.8"/>
<text text-anchor="middle" x="2350" y="-62.6" font-family="Times,serif" font-size="14.00">ExcluirCargosComponent</text>
</g>
<!-- ExcluirCargosComponent&#45;&gt;AppModule -->
<g id="edge16" class="edge">
<title>ExcluirCargosComponent&#45;&gt;AppModule</title>
<path fill="none" stroke="black" d="M2350,-84.85C2350,-99.17 2350,-116.8 2350,-116.8 2350,-116.8 2587.29,-116.8 2587.29,-116.8"/>
<polygon fill="black" stroke="black" points="2587.29,-120.3 2597.29,-116.8 2587.29,-113.3 2587.29,-120.3"/>
</g>
<!-- ExcluirFuncComponent -->
<g id="node17" class="node">
<title>ExcluirFuncComponent</title>
<polygon fill="#ffffb3" stroke="black" points="2251.04,-84.8 2100.96,-84.8 2100.96,-48.8 2251.04,-48.8 2251.04,-84.8"/>
<text text-anchor="middle" x="2176" y="-62.6" font-family="Times,serif" font-size="14.00">ExcluirFuncComponent</text>
</g>
<!-- ExcluirFuncComponent&#45;&gt;AppModule -->
<g id="edge17" class="edge">
<title>ExcluirFuncComponent&#45;&gt;AppModule</title>
<path fill="none" stroke="black" d="M2176,-84.99C2176,-99.98 2176,-118.8 2176,-118.8 2176,-118.8 2587.1,-118.8 2587.1,-118.8"/>
<polygon fill="black" stroke="black" points="2587.1,-122.3 2597.1,-118.8 2587.1,-115.3 2587.1,-122.3"/>
</g>
<!-- ExcluirMentorComponent -->
<g id="node18" class="node">
<title>ExcluirMentorComponent</title>
<polygon fill="#ffffb3" stroke="black" points="2082.75,-84.8 1919.25,-84.8 1919.25,-48.8 2082.75,-48.8 2082.75,-84.8"/>
<text text-anchor="middle" x="2001" y="-62.6" font-family="Times,serif" font-size="14.00">ExcluirMentorComponent</text>
</g>
<!-- ExcluirMentorComponent&#45;&gt;AppModule -->
<g id="edge18" class="edge">
<title>ExcluirMentorComponent&#45;&gt;AppModule</title>
<path fill="none" stroke="black" d="M2001,-85.08C2001,-100.75 2001,-120.8 2001,-120.8 2001,-120.8 2587.14,-120.8 2587.14,-120.8"/>
<polygon fill="black" stroke="black" points="2587.14,-124.3 2597.14,-120.8 2587.14,-117.3 2587.14,-124.3"/>
</g>
<!-- FooterComponent -->
<g id="node19" class="node">
<title>FooterComponent</title>
<polygon fill="#ffffb3" stroke="black" points="1900.88,-84.8 1783.12,-84.8 1783.12,-48.8 1900.88,-48.8 1900.88,-84.8"/>
<text text-anchor="middle" x="1842" y="-62.6" font-family="Times,serif" font-size="14.00">FooterComponent</text>
</g>
<!-- FooterComponent&#45;&gt;AppModule -->
<g id="edge19" class="edge">
<title>FooterComponent&#45;&gt;AppModule</title>
<path fill="none" stroke="black" d="M1842,-84.83C1842,-101.2 1842,-122.8 1842,-122.8 1842,-122.8 2587.27,-122.8 2587.27,-122.8"/>
<polygon fill="black" stroke="black" points="2587.27,-126.3 2597.27,-122.8 2587.27,-119.3 2587.27,-126.3"/>
</g>
<!-- FuncionariosComponent -->
<g id="node20" class="node">
<title>FuncionariosComponent</title>
<polygon fill="#ffffb3" stroke="black" points="1765.43,-84.8 1610.57,-84.8 1610.57,-48.8 1765.43,-48.8 1765.43,-84.8"/>
<text text-anchor="middle" x="1688" y="-62.6" font-family="Times,serif" font-size="14.00">FuncionariosComponent</text>
</g>
<!-- FuncionariosComponent&#45;&gt;AppModule -->
<g id="edge20" class="edge">
<title>FuncionariosComponent&#45;&gt;AppModule</title>
<path fill="none" stroke="black" d="M1688,-84.82C1688,-102.17 1688,-125.8 1688,-125.8 1688,-125.8 2587.22,-125.8 2587.22,-125.8"/>
<polygon fill="black" stroke="black" points="2587.22,-129.3 2597.22,-125.8 2587.22,-122.3 2587.22,-129.3"/>
</g>
<!-- HeaderComponent -->
<g id="node21" class="node">
<title>HeaderComponent</title>
<polygon fill="#ffffb3" stroke="black" points="1592.74,-84.8 1471.26,-84.8 1471.26,-48.8 1592.74,-48.8 1592.74,-84.8"/>
<text text-anchor="middle" x="1532" y="-62.6" font-family="Times,serif" font-size="14.00">HeaderComponent</text>
</g>
<!-- HeaderComponent&#45;&gt;AppModule -->
<g id="edge21" class="edge">
<title>HeaderComponent&#45;&gt;AppModule</title>
<path fill="none" stroke="black" d="M1532,-85.1C1532,-103.07 1532,-127.8 1532,-127.8 1532,-127.8 2587.29,-127.8 2587.29,-127.8"/>
<polygon fill="black" stroke="black" points="2587.29,-131.3 2597.29,-127.8 2587.29,-124.3 2587.29,-131.3"/>
</g>
<!-- HeaderUserComponent -->
<g id="node22" class="node">
<title>HeaderUserComponent</title>
<polygon fill="#ffffb3" stroke="black" points="1453.17,-84.8 1304.83,-84.8 1304.83,-48.8 1453.17,-48.8 1453.17,-84.8"/>
<text text-anchor="middle" x="1379" y="-62.6" font-family="Times,serif" font-size="14.00">HeaderUserComponent</text>
</g>
<!-- HeaderUserComponent&#45;&gt;AppModule -->
<g id="edge22" class="edge">
<title>HeaderUserComponent&#45;&gt;AppModule</title>
<path fill="none" stroke="black" d="M1379,-85.02C1379,-103.63 1379,-129.8 1379,-129.8 1379,-129.8 2587.08,-129.8 2587.08,-129.8"/>
<polygon fill="black" stroke="black" points="2587.08,-133.3 2597.08,-129.8 2587.08,-126.3 2587.08,-133.3"/>
</g>
<!-- HomeComponent -->
<g id="node23" class="node">
<title>HomeComponent</title>
<polygon fill="#ffffb3" stroke="black" points="1286.55,-84.8 1171.45,-84.8 1171.45,-48.8 1286.55,-48.8 1286.55,-84.8"/>
<text text-anchor="middle" x="1229" y="-62.6" font-family="Times,serif" font-size="14.00">HomeComponent</text>
</g>
<!-- HomeComponent&#45;&gt;AppModule -->
<g id="edge23" class="edge">
<title>HomeComponent&#45;&gt;AppModule</title>
<path fill="none" stroke="black" d="M1229,-84.91C1229,-104.14 1229,-131.8 1229,-131.8 1229,-131.8 2587.18,-131.8 2587.18,-131.8"/>
<polygon fill="black" stroke="black" points="2587.18,-135.3 2597.18,-131.8 2587.18,-128.3 2587.18,-135.3"/>
</g>
<!-- ListaCargoComponent -->
<g id="node24" class="node">
<title>ListaCargoComponent</title>
<polygon fill="#ffffb3" stroke="black" points="1152.54,-84.8 1009.46,-84.8 1009.46,-48.8 1152.54,-48.8 1152.54,-84.8"/>
<text text-anchor="middle" x="1081" y="-62.6" font-family="Times,serif" font-size="14.00">ListaCargoComponent</text>
</g>
<!-- ListaCargoComponent&#45;&gt;AppModule -->
<g id="edge24" class="edge">
<title>ListaCargoComponent&#45;&gt;AppModule</title>
<path fill="none" stroke="black" d="M1081,-85.02C1081,-105.17 1081,-134.8 1081,-134.8 1081,-134.8 2587.33,-134.8 2587.33,-134.8"/>
<polygon fill="black" stroke="black" points="2587.33,-138.3 2597.33,-134.8 2587.33,-131.3 2587.33,-138.3"/>
</g>
<!-- ListaFuncCargoComponent -->
<g id="node25" class="node">
<title>ListaFuncCargoComponent</title>
<polygon fill="#ffffb3" stroke="black" points="990.54,-84.8 819.46,-84.8 819.46,-48.8 990.54,-48.8 990.54,-84.8"/>
<text text-anchor="middle" x="905" y="-62.6" font-family="Times,serif" font-size="14.00">ListaFuncCargoComponent</text>
</g>
<!-- ListaFuncCargoComponent&#45;&gt;AppModule -->
<g id="edge25" class="edge">
<title>ListaFuncCargoComponent&#45;&gt;AppModule</title>
<path fill="none" stroke="black" d="M905,-84.83C905,-105.57 905,-136.8 905,-136.8 905,-136.8 2587,-136.8 2587,-136.8"/>
<polygon fill="black" stroke="black" points="2587,-140.3 2597,-136.8 2587,-133.3 2587,-140.3"/>
</g>
<!-- ListaFuncComponent -->
<g id="node26" class="node">
<title>ListaFuncComponent</title>
<polygon fill="#ffffb3" stroke="black" points="801.82,-84.8 664.18,-84.8 664.18,-48.8 801.82,-48.8 801.82,-84.8"/>
<text text-anchor="middle" x="733" y="-62.6" font-family="Times,serif" font-size="14.00">ListaFuncComponent</text>
</g>
<!-- ListaFuncComponent&#45;&gt;AppModule -->
<g id="edge26" class="edge">
<title>ListaFuncComponent&#45;&gt;AppModule</title>
<path fill="none" stroke="black" d="M733,-84.97C733,-106.3 733,-138.8 733,-138.8 733,-138.8 2586.97,-138.8 2586.97,-138.8"/>
<polygon fill="black" stroke="black" points="2586.97,-142.3 2596.97,-138.8 2586.97,-135.3 2586.97,-142.3"/>
</g>
<!-- ListaMentorComponent -->
<g id="node27" class="node">
<title>ListaMentorComponent</title>
<polygon fill="#ffffb3" stroke="black" points="646.04,-84.8 495.96,-84.8 495.96,-48.8 646.04,-48.8 646.04,-84.8"/>
<text text-anchor="middle" x="571" y="-62.6" font-family="Times,serif" font-size="14.00">ListaMentorComponent</text>
</g>
<!-- ListaMentorComponent&#45;&gt;AppModule -->
<g id="edge27" class="edge">
<title>ListaMentorComponent&#45;&gt;AppModule</title>
<path fill="none" stroke="black" d="M571,-85.09C571,-107.01 571,-140.8 571,-140.8 571,-140.8 2587.22,-140.8 2587.22,-140.8"/>
<polygon fill="black" stroke="black" points="2587.22,-144.3 2597.22,-140.8 2587.22,-137.3 2587.22,-144.3"/>
</g>
<!-- LoginComponent -->
<g id="node28" class="node">
<title>LoginComponent</title>
<polygon fill="#ffffb3" stroke="black" points="477.28,-84.8 362.72,-84.8 362.72,-48.8 477.28,-48.8 477.28,-84.8"/>
<text text-anchor="middle" x="420" y="-62.6" font-family="Times,serif" font-size="14.00">LoginComponent</text>
</g>
<!-- LoginComponent&#45;&gt;AppModule -->
<g id="edge28" class="edge">
<title>LoginComponent&#45;&gt;AppModule</title>
<path fill="none" stroke="black" d="M420,-85.05C420,-107.82 420,-143.8 420,-143.8 420,-143.8 2587.14,-143.8 2587.14,-143.8"/>
<polygon fill="black" stroke="black" points="2587.14,-147.3 2597.14,-143.8 2587.14,-140.3 2587.14,-147.3"/>
</g>
<!-- MentoresCargoComponent -->
<g id="node29" class="node">
<title>MentoresCargoComponent</title>
<polygon fill="#ffffb3" stroke="black" points="344.41,-84.8 175.59,-84.8 175.59,-48.8 344.41,-48.8 344.41,-84.8"/>
<text text-anchor="middle" x="260" y="-62.6" font-family="Times,serif" font-size="14.00">MentoresCargoComponent</text>
</g>
<!-- MentoresCargoComponent&#45;&gt;AppModule -->
<g id="edge29" class="edge">
<title>MentoresCargoComponent&#45;&gt;AppModule</title>
<path fill="none" stroke="black" d="M260,-85.12C260,-108.46 260,-145.8 260,-145.8 260,-145.8 2587.2,-145.8 2587.2,-145.8"/>
<polygon fill="black" stroke="black" points="2587.2,-149.3 2597.2,-145.8 2587.2,-142.3 2587.2,-149.3"/>
</g>
<!-- MentoresComponent -->
<g id="node30" class="node">
<title>MentoresComponent</title>
<polygon fill="#ffffb3" stroke="black" points="158.2,-84.8 23.8,-84.8 23.8,-48.8 158.2,-48.8 158.2,-84.8"/>
<text text-anchor="middle" x="91" y="-62.6" font-family="Times,serif" font-size="14.00">MentoresComponent</text>
</g>
<!-- MentoresComponent&#45;&gt;AppModule -->
<g id="edge30" class="edge">
<title>MentoresComponent&#45;&gt;AppModule</title>
<path fill="none" stroke="black" d="M91,-85.18C91,-109.08 91,-147.8 91,-147.8 91,-147.8 2587.16,-147.8 2587.16,-147.8"/>
<polygon fill="black" stroke="black" points="2587.16,-151.3 2597.16,-147.8 2587.16,-144.3 2587.16,-151.3"/>
</g>
<!-- AppComponent  -->
<g id="node33" class="node">
<title>AppComponent </title>
<polygon fill="#80b1d3" stroke="black" points="2693.44,-214.8 2584.56,-214.8 2584.56,-178.8 2693.44,-178.8 2693.44,-214.8"/>
<text text-anchor="middle" x="2639" y="-192.6" font-family="Times,serif" font-size="14.00">AppComponent </text>
</g>
<!-- AppModule&#45;&gt;AppComponent  -->
<g id="edge32" class="edge">
<title>AppModule&#45;&gt;AppComponent </title>
<path fill="none" stroke="black" stroke-dasharray="1,5" d="M2639,-149.91C2639,-149.91 2639,-168.79 2639,-168.79"/>
<polygon fill="black" stroke="black" points="2635.5,-168.79 2639,-178.79 2642.5,-168.79 2635.5,-168.79"/>
</g>
<!-- AppRoutingModule -->
<g id="node32" class="node">
<title>AppRoutingModule</title>
<polygon fill="#8dd3c7" stroke="black" points="5239.27,-84.8 5236.27,-88.8 5215.27,-88.8 5212.27,-84.8 5110.73,-84.8 5110.73,-48.8 5239.27,-48.8 5239.27,-84.8"/>
<text text-anchor="middle" x="5175" y="-62.6" font-family="Times,serif" font-size="14.00">AppRoutingModule</text>
</g>
<!-- AppRoutingModule&#45;&gt;AppModule -->
<g id="edge31" class="edge">
<title>AppRoutingModule&#45;&gt;AppModule</title>
<path fill="none" stroke="black" d="M5175,-85.12C5175,-108.46 5175,-145.8 5175,-145.8 5175,-145.8 2690.9,-145.8 2690.9,-145.8"/>
<polygon fill="black" stroke="black" points="2690.9,-142.3 2680.9,-145.8 2690.9,-149.3 2690.9,-142.3"/>
</g>
<!-- AuthService -->
<g id="node34" class="node">
<title>AuthService</title>
<ellipse fill="#fdb462" stroke="black" cx="5322" cy="-66.8" rx="59.11" ry="18"/>
<text text-anchor="middle" x="5322" y="-62.6" font-family="Times,serif" font-size="14.00">AuthService</text>
</g>
<!-- AuthService&#45;&gt;AppModule -->
<g id="edge33" class="edge">
<title>AuthService&#45;&gt;AppModule</title>
<path fill="none" stroke="black" d="M5322,-85.18C5322,-109.08 5322,-147.8 5322,-147.8 5322,-147.8 2690.87,-147.8 2690.87,-147.8"/>
<polygon fill="black" stroke="black" points="2690.87,-144.3 2680.87,-147.8 2690.87,-151.3 2690.87,-144.3"/>
</g>
</g>
</svg>
