<svg xmlns="http://www.w3.org/2000/svg" viewBox="0 0 500 500"><g id="freepik--background-complete--inject-6"><rect y="382.4" width="500" height="0.25" style="fill:#ebebeb"></rect><rect x="416.78" y="398.49" width="33.12" height="0.25" style="fill:#ebebeb"></rect><rect x="322.53" y="401.21" width="8.69" height="0.25" style="fill:#ebebeb"></rect><rect x="396.59" y="389.21" width="19.19" height="0.25" style="fill:#ebebeb"></rect><rect x="52.46" y="390.89" width="43.19" height="0.25" style="fill:#ebebeb"></rect><rect x="104.56" y="390.89" width="6.33" height="0.25" style="fill:#ebebeb"></rect><rect x="131.47" y="395.11" width="93.68" height="0.25" style="fill:#ebebeb"></rect><path d="M237,337.8H43.91a5.71,5.71,0,0,1-5.7-5.71V60.66A5.71,5.71,0,0,1,43.91,55H237a5.71,5.71,0,0,1,5.71,5.71V332.09A5.71,5.71,0,0,1,237,337.8ZM43.91,55.2a5.46,5.46,0,0,0-5.45,5.46V332.09a5.46,5.46,0,0,0,5.45,5.46H237a5.47,5.47,0,0,0,5.46-5.46V60.66A5.47,5.47,0,0,0,237,55.2Z" style="fill:#ebebeb"></path><path d="M453.31,337.8H260.21a5.72,5.72,0,0,1-5.71-5.71V60.66A5.72,5.72,0,0,1,260.21,55h193.1A5.71,5.71,0,0,1,459,60.66V332.09A5.71,5.71,0,0,1,453.31,337.8ZM260.21,55.2a5.47,5.47,0,0,0-5.46,5.46V332.09a5.47,5.47,0,0,0,5.46,5.46h193.1a5.47,5.47,0,0,0,5.46-5.46V60.66a5.47,5.47,0,0,0-5.46-5.46Z" style="fill:#ebebeb"></path><rect x="74.54" y="140.97" width="350.92" height="40.11" style="fill:#f5f5f5"></rect><path d="M89.36,159.47V147H86.59v12.47a2.1,2.1,0,0,1-1.49,2h0a2.11,2.11,0,0,0-1.49,2.13l.86,17.46h7l.87-17.46a2.12,2.12,0,0,0-1.5-2.13h0A2.12,2.12,0,0,1,89.36,159.47Z" style="fill:#e0e0e0"></path><path d="M107.06,162.73V150.37h-4.25v12.36a2.7,2.7,0,0,1-2.12,2.64h0A2.72,2.72,0,0,0,98.57,168v13.06H111.3V168a2.72,2.72,0,0,0-2.12-2.65h0A2.7,2.7,0,0,1,107.06,162.73Z" style="fill:#e0e0e0"></path><path d="M123.63,157.67v-8.92h-3.47v8.92a3.16,3.16,0,0,1-1.17,2.45h0a3.14,3.14,0,0,0-1.16,2.44v18.52H126V162.56a3.14,3.14,0,0,0-1.16-2.44h0A3.15,3.15,0,0,1,123.63,157.67Z" style="fill:#e0e0e0"></path><path d="M140.91,159.9V148.75h-4.12V159.9a8.42,8.42,0,0,1-1,4h0a8.48,8.48,0,0,0-1,4.06v13.07H143V168a8.48,8.48,0,0,0-1-4.06h0A8.41,8.41,0,0,1,140.91,159.9Z" style="fill:#e0e0e0"></path><path d="M157.43,157.47v-7.1h-3.25v7.1a3.68,3.68,0,0,1-2.31,3.41h0a3.65,3.65,0,0,0-2.3,3.59l.81,16.61h10.84l.82-16.61a3.67,3.67,0,0,0-2.3-3.59h0A3.67,3.67,0,0,1,157.43,157.47Z" style="fill:#e0e0e0"></path><path d="M174.14,159.47V147h-2.76v12.47a2.11,2.11,0,0,1-1.5,2h0a2.12,2.12,0,0,0-1.49,2.13l.87,17.46h7l.86-17.46a2.12,2.12,0,0,0-1.49-2.13h0A2.11,2.11,0,0,1,174.14,159.47Z" style="fill:#e0e0e0"></path><path d="M191.84,162.73V150.37H187.6v12.36a2.71,2.71,0,0,1-2.13,2.64h0a2.72,2.72,0,0,0-2.12,2.65v13.06h12.73V168a2.72,2.72,0,0,0-2.12-2.65h0A2.7,2.7,0,0,1,191.84,162.73Z" style="fill:#e0e0e0"></path><path d="M208.41,157.67v-8.92h-3.47v8.92a3.18,3.18,0,0,1-1.16,2.45h0a3.11,3.11,0,0,0-1.16,2.44v18.52h8.11V162.56a3.14,3.14,0,0,0-1.16-2.44h0A3.18,3.18,0,0,1,208.41,157.67Z" style="fill:#e0e0e0"></path><path d="M225.69,159.9V148.75h-4.12V159.9a8.42,8.42,0,0,1-1,4h0a8.47,8.47,0,0,0-1,4.06v13.07h8.26V168a8.47,8.47,0,0,0-1-4.06h0A8.42,8.42,0,0,1,225.69,159.9Z" style="fill:#e0e0e0"></path><path d="M242.21,157.47v-7.1H239v7.1a3.67,3.67,0,0,1-2.31,3.41h0a3.67,3.67,0,0,0-2.3,3.59l.82,16.61H246l.81-16.61a3.65,3.65,0,0,0-2.3-3.59h0A3.68,3.68,0,0,1,242.21,157.47Z" style="fill:#e0e0e0"></path><path d="M258.93,159.47V147h-2.77v12.47a2.12,2.12,0,0,1-1.49,2h0a2.13,2.13,0,0,0-1.5,2.13l.87,17.46h7l.86-17.46a2.11,2.11,0,0,0-1.49-2.13h0A2.1,2.1,0,0,1,258.93,159.47Z" style="fill:#e0e0e0"></path><path d="M276.62,162.73V150.37h-4.24v12.36a2.7,2.7,0,0,1-2.12,2.64h0a2.73,2.73,0,0,0-2.13,2.65v13.06h12.74V168a2.73,2.73,0,0,0-2.13-2.65h0A2.7,2.7,0,0,1,276.62,162.73Z" style="fill:#e0e0e0"></path><path d="M293.19,157.67v-8.92h-3.47v8.92a3.15,3.15,0,0,1-1.16,2.45h0a3.14,3.14,0,0,0-1.16,2.44v18.52h8.11V162.56a3.11,3.11,0,0,0-1.16-2.44h0A3.18,3.18,0,0,1,293.19,157.67Z" style="fill:#e0e0e0"></path><path d="M310.47,159.9V148.75h-4.12V159.9a8.41,8.41,0,0,1-1,4h0a8.48,8.48,0,0,0-1,4.06v13.07h8.27V168a8.48,8.48,0,0,0-1-4.06h0A8.42,8.42,0,0,1,310.47,159.9Z" style="fill:#e0e0e0"></path><path d="M327,157.47v-7.1h-3.26v7.1a3.68,3.68,0,0,1-2.3,3.41h0a3.68,3.68,0,0,0-2.31,3.59l.82,16.61h10.84l.82-16.61a3.68,3.68,0,0,0-2.31-3.59h0A3.68,3.68,0,0,1,327,157.47Z" style="fill:#e0e0e0"></path><path d="M343.71,159.47V147h-2.77v12.47a2.1,2.1,0,0,1-1.49,2h0a2.11,2.11,0,0,0-1.49,2.13l.86,17.46h7l.87-17.46a2.13,2.13,0,0,0-1.5-2.13h0A2.12,2.12,0,0,1,343.71,159.47Z" style="fill:#e0e0e0"></path><path d="M361.41,162.73V150.37h-4.25v12.36a2.7,2.7,0,0,1-2.12,2.64h0a2.72,2.72,0,0,0-2.12,2.65v13.06h12.73V168a2.72,2.72,0,0,0-2.12-2.65h0A2.7,2.7,0,0,1,361.41,162.73Z" style="fill:#e0e0e0"></path><path d="M378,157.67v-8.92h-3.47v8.92a3.16,3.16,0,0,1-1.17,2.45h0a3.14,3.14,0,0,0-1.16,2.44v18.52h8.12V162.56a3.14,3.14,0,0,0-1.16-2.44h0A3.15,3.15,0,0,1,378,157.67Z" style="fill:#e0e0e0"></path><path d="M395.26,159.9V148.75h-4.12V159.9a8.42,8.42,0,0,1-1,4h0a8.48,8.48,0,0,0-1,4.06v13.07h8.27V168a8.48,8.48,0,0,0-1-4.06h0A8.41,8.41,0,0,1,395.26,159.9Z" style="fill:#e0e0e0"></path><path d="M411.78,157.47v-7.1h-3.25v7.1a3.68,3.68,0,0,1-2.31,3.41h0a3.65,3.65,0,0,0-2.3,3.59l.81,16.61h10.84l.82-16.61a3.67,3.67,0,0,0-2.3-3.59h0A3.67,3.67,0,0,1,411.78,157.47Z" style="fill:#e0e0e0"></path><rect x="74.54" y="186.21" width="350.92" height="40.11" style="fill:#f5f5f5"></rect><path d="M410.64,204.71V192.24h2.77v12.47a2.1,2.1,0,0,0,1.49,2h0a2.12,2.12,0,0,1,1.49,2.13l-.86,17.46h-7l-.87-17.46a2.13,2.13,0,0,1,1.5-2.13h0A2.12,2.12,0,0,0,410.64,204.71Z" style="fill:#e0e0e0"></path><path d="M392.94,208V195.61h4.25V208a2.72,2.72,0,0,0,2.12,2.65h0a2.7,2.7,0,0,1,2.12,2.64v13.06H388.7V213.26a2.7,2.7,0,0,1,2.12-2.64h0A2.72,2.72,0,0,0,392.94,208Z" style="fill:#e0e0e0"></path><path d="M376.37,202.91V194h3.47v8.92a3.16,3.16,0,0,0,1.17,2.45h0a3.16,3.16,0,0,1,1.16,2.44v18.52h-8.12V207.8a3.16,3.16,0,0,1,1.16-2.44h0A3.15,3.15,0,0,0,376.37,202.91Z" style="fill:#e0e0e0"></path><path d="M359.09,205.14V194h4.12v11.15a8.48,8.48,0,0,0,1,4.06h0a8.42,8.42,0,0,1,1,4.05v13.07H357V213.25a8.42,8.42,0,0,1,1-4.05h0A8.47,8.47,0,0,0,359.09,205.14Z" style="fill:#e0e0e0"></path><path d="M342.57,202.72v-7.11h3.25v7.11a3.66,3.66,0,0,0,2.31,3.4h0a3.66,3.66,0,0,1,2.3,3.59l-.81,16.61H338.78L338,209.71a3.68,3.68,0,0,1,2.3-3.59h0A3.65,3.65,0,0,0,342.57,202.72Z" style="fill:#e0e0e0"></path><path d="M325.86,204.71V192.24h2.76v12.47a2.11,2.11,0,0,0,1.5,2h0a2.13,2.13,0,0,1,1.49,2.13l-.87,17.46h-7l-.86-17.46a2.13,2.13,0,0,1,1.49-2.13h0A2.11,2.11,0,0,0,325.86,204.71Z" style="fill:#e0e0e0"></path><path d="M308.16,208V195.61h4.24V208a2.73,2.73,0,0,0,2.13,2.65h0a2.7,2.7,0,0,1,2.12,2.64v13.06H303.92V213.26a2.7,2.7,0,0,1,2.12-2.64h0A2.72,2.72,0,0,0,308.16,208Z" style="fill:#e0e0e0"></path><path d="M291.59,202.91V194h3.47v8.92a3.18,3.18,0,0,0,1.16,2.45h0a3.13,3.13,0,0,1,1.16,2.44v18.52h-8.11V207.8a3.16,3.16,0,0,1,1.16-2.44h0A3.18,3.18,0,0,0,291.59,202.91Z" style="fill:#e0e0e0"></path><path d="M274.31,205.14V194h4.12v11.15a8.48,8.48,0,0,0,1,4.06h0a8.41,8.41,0,0,1,1,4.05v13.07h-8.26V213.25a8.41,8.41,0,0,1,1-4.05h0A8.48,8.48,0,0,0,274.31,205.14Z" style="fill:#e0e0e0"></path><path d="M257.79,202.72v-7.11H261v7.11a3.65,3.65,0,0,0,2.31,3.4h0a3.68,3.68,0,0,1,2.3,3.59l-.82,16.61H254l-.81-16.61a3.66,3.66,0,0,1,2.3-3.59h0A3.66,3.66,0,0,0,257.79,202.72Z" style="fill:#e0e0e0"></path><path d="M241.07,204.71V192.24h2.77v12.47a2.12,2.12,0,0,0,1.49,2h0a2.14,2.14,0,0,1,1.5,2.13L246,226.32h-7l-.86-17.46a2.12,2.12,0,0,1,1.49-2.13h0A2.1,2.1,0,0,0,241.07,204.71Z" style="fill:#e0e0e0"></path><path d="M223.38,208V195.61h4.24V208a2.72,2.72,0,0,0,2.12,2.65h0a2.71,2.71,0,0,1,2.13,2.64v13.06H219.13V213.26a2.71,2.71,0,0,1,2.13-2.64h0A2.72,2.72,0,0,0,223.38,208Z" style="fill:#e0e0e0"></path><path d="M206.81,202.91V194h3.47v8.92a3.15,3.15,0,0,0,1.16,2.45h0a3.16,3.16,0,0,1,1.16,2.44v18.52h-8.11V207.8a3.13,3.13,0,0,1,1.16-2.44h0A3.18,3.18,0,0,0,206.81,202.91Z" style="fill:#e0e0e0"></path><path d="M189.53,205.14V194h4.12v11.15a8.47,8.47,0,0,0,1,4.06h0a8.42,8.42,0,0,1,1,4.05v13.07h-8.27V213.25a8.42,8.42,0,0,1,1-4.05h0A8.48,8.48,0,0,0,189.53,205.14Z" style="fill:#e0e0e0"></path><path d="M173,202.72v-7.11h3.26v7.11a3.65,3.65,0,0,0,2.3,3.4h0a3.68,3.68,0,0,1,2.31,3.59l-.82,16.61H169.21l-.82-16.61a3.68,3.68,0,0,1,2.31-3.59h0A3.65,3.65,0,0,0,173,202.72Z" style="fill:#e0e0e0"></path><path d="M156.29,204.71V192.24h2.77v12.47a2.1,2.1,0,0,0,1.49,2h0a2.12,2.12,0,0,1,1.49,2.13l-.86,17.46h-7l-.87-17.46a2.14,2.14,0,0,1,1.5-2.13h0A2.12,2.12,0,0,0,156.29,204.71Z" style="fill:#e0e0e0"></path><path d="M138.59,208V195.61h4.25V208a2.72,2.72,0,0,0,2.12,2.65h0a2.7,2.7,0,0,1,2.12,2.64v13.06H134.35V213.26a2.7,2.7,0,0,1,2.12-2.64h0A2.72,2.72,0,0,0,138.59,208Z" style="fill:#e0e0e0"></path><path d="M122,202.91V194h3.47v8.92a3.16,3.16,0,0,0,1.17,2.45h0a3.16,3.16,0,0,1,1.16,2.44v18.52H119.7V207.8a3.16,3.16,0,0,1,1.16-2.44h0A3.15,3.15,0,0,0,122,202.91Z" style="fill:#e0e0e0"></path><path d="M104.74,205.14V194h4.12v11.15a8.48,8.48,0,0,0,1,4.06h0a8.42,8.42,0,0,1,1,4.05v13.07h-8.27V213.25a8.42,8.42,0,0,1,1-4.05h0A8.47,8.47,0,0,0,104.74,205.14Z" style="fill:#e0e0e0"></path><path d="M88.22,202.72v-7.11h3.25v7.11a3.66,3.66,0,0,0,2.31,3.4h0a3.66,3.66,0,0,1,2.3,3.59l-.81,16.61H84.43l-.82-16.61a3.68,3.68,0,0,1,2.3-3.59h0A3.65,3.65,0,0,0,88.22,202.72Z" style="fill:#e0e0e0"></path></g><g id="freepik--Shadow--inject-6"><ellipse id="freepik--path--inject-6" cx="250" cy="416.24" rx="193.89" ry="11.32" style="fill:#f5f5f5"></ellipse></g><g id="freepik--Plant--inject-6"><polygon points="433.94 415.86 398.69 415.86 394.01 381.59 438.63 381.59 433.94 415.86" style="fill:#263238"></polygon><path d="M415.87,381.64s-4.94-23.32,4.05-35.95-8.12-.14-10.09,11.68c0,0-2.95-21.14,5.77-36s-7.59-2.66-9,12.66c0,0-2.67-18.86,1.34-29.46s-3-3.78-5.65,2.86.84,23.1.84,23.1-7-30.42-13.61-28,9.9,22.35,12.19,32.72c0,0-7.81-13.95-13.73-11.05s9.17,4.35,16.08,25.16l2.43,9.75s-7.18-13.77-11.88-9.43,13.92,11.85,18.25,32.72Z" style="fill:#C5963F"></path><path d="M414.9,383s-1-29.4-15.56-41.85,9.68-2.6,15.56,11c0,0-2.77-26.2-17.64-41.42s8.3-5.45,14.53,12.49c0,0-2.42-23.38-10.38-34.88s2.42-5.42,7.61,1.74S414.9,318,414.9,318s-.69-38.52,8-37.59-5.19,29.72-4.85,42.82c0,0,5.19-19,13.15-17.32s-9.69,7.94-11.76,34.92V353.2s4.49-18.64,11.41-14.83S417.67,356.7,418.71,383Z" style="fill:#C5963F"></path><path d="M414.9,383s-1-29.4-15.56-41.85,9.68-2.6,15.56,11c0,0-2.77-26.2-17.64-41.42s8.3-5.45,14.53,12.49c0,0-2.42-23.38-10.38-34.88s2.42-5.42,7.61,1.74S414.9,318,414.9,318s-.69-38.52,8-37.59-5.19,29.72-4.85,42.82c0,0,5.19-19,13.15-17.32s-9.69,7.94-11.76,34.92V353.2s4.49-18.64,11.41-14.83S417.67,356.7,418.71,383Z" style="fill:#fff;opacity:0.2;isolation:isolate"></path><path d="M389.59,378.81v3.26a4,4,0,0,0,3.94,3.94h46a3.94,3.94,0,0,0,3.94-3.94v-3.26Z" style="fill:#263238"></path><path d="M389.59,378.81v3.26a4,4,0,0,0,3.94,3.94h46a3.94,3.94,0,0,0,3.94-3.94v-3.26Z" style="fill:#fff;opacity:0.2;isolation:isolate"></path></g><g id="freepik--bar-counter--inject-6"><path d="M121.5,248.79l2.53,0v-1.08H121.5a2.15,2.15,0,0,1-2.16-2.13l0-5.06a2.14,2.14,0,0,1,2.13-2.15H124v-1.09h-2.53a3.24,3.24,0,0,0-3.21,3.25l0,5A3.23,3.23,0,0,0,121.5,248.79Z" style="fill:#263238"></path><g style="opacity:0.4"><path d="M121.5,248.79l2.53,0v-1.08H121.5a2.15,2.15,0,0,1-2.16-2.13l0-5.06a2.14,2.14,0,0,1,2.13-2.15H124v-1.09h-2.53a3.24,3.24,0,0,0-3.21,3.25l0,5A3.23,3.23,0,0,0,121.5,248.79Z" style="fill:#fff"></path></g><rect x="123.55" y="235.49" width="13.34" height="15.82" transform="translate(-0.34 0.18) rotate(-0.08)" style="fill:#263238"></rect><rect x="123.55" y="235.49" width="13.34" height="15.82" transform="translate(-0.34 0.18) rotate(-0.08)" style="fill:#fff;opacity:0.6000000000000001"></rect><path d="M125.55,250.34h-1.48V242a.74.74,0,0,1,.74-.74h0a.73.73,0,0,1,.74.73Z" style="opacity:0.1;isolation:isolate"></path><path d="M129.16,250.34h-1.48V242a.74.74,0,0,1,.74-.74h0a.74.74,0,0,1,.74.74Z" style="opacity:0.1;isolation:isolate"></path><path d="M132.78,250.33H131.3V242a.74.74,0,0,1,.74-.74h0a.74.74,0,0,1,.74.73Z" style="opacity:0.1;isolation:isolate"></path><path d="M136.39,250.33h-1.48V242a.74.74,0,0,1,.74-.74h0a.74.74,0,0,1,.74.74Z" style="opacity:0.1;isolation:isolate"></path><rect x="123.27" y="234.29" width="13.88" height="1.93" transform="translate(-0.33 0.18) rotate(-0.08)" style="fill:#263238"></rect><rect x="123.29" y="250.13" width="13.88" height="1.93" transform="translate(-0.35 0.18) rotate(-0.08)" style="fill:#263238"></rect><rect x="123.27" y="234.29" width="13.88" height="1.93" transform="translate(-0.33 0.18) rotate(-0.08)" style="fill:#fff;opacity:0.5"></rect><rect x="123.29" y="250.13" width="13.88" height="1.93" transform="translate(-0.35 0.18) rotate(-0.08)" style="fill:#fff;opacity:0.5"></rect><path d="M363.91,248.79l-2.52,0v-1.08h2.53a2.14,2.14,0,0,0,2.15-2.13l0-5.06a2.14,2.14,0,0,0-2.13-2.15h-2.53v-1.09H364a3.24,3.24,0,0,1,3.22,3.25l0,5A3.24,3.24,0,0,1,363.91,248.79Z" style="fill:#263238"></path><g style="opacity:0.4"><path d="M363.91,248.79l-2.52,0v-1.08h2.53a2.14,2.14,0,0,0,2.15-2.13l0-5.06a2.14,2.14,0,0,0-2.13-2.15h-2.53v-1.09H364a3.24,3.24,0,0,1,3.22,3.25l0,5A3.24,3.24,0,0,1,363.91,248.79Z" style="fill:#fff"></path></g><rect x="348.52" y="235.49" width="13.34" height="15.82" transform="translate(710.05 487.29) rotate(-179.92)" style="fill:#263238"></rect><rect x="348.52" y="235.49" width="13.34" height="15.82" transform="translate(710.05 487.29) rotate(-179.92)" style="fill:#fff;opacity:0.6000000000000001"></rect><path d="M359.87,250.34h1.48V242a.74.74,0,0,0-.74-.74h0a.73.73,0,0,0-.74.73Z" style="opacity:0.1;isolation:isolate"></path><path d="M356.25,250.34h1.48V242a.74.74,0,0,0-.74-.74h0a.74.74,0,0,0-.74.74Z" style="opacity:0.1;isolation:isolate"></path><path d="M352.64,250.33h1.48V242a.74.74,0,0,0-.74-.74h0a.73.73,0,0,0-.74.73Z" style="opacity:0.1;isolation:isolate"></path><path d="M349,250.33h1.48V242a.74.74,0,0,0-.73-.74h0a.74.74,0,0,0-.74.74Z" style="opacity:0.1;isolation:isolate"></path><rect x="348.27" y="234.29" width="13.88" height="1.93" transform="translate(710.08 471) rotate(-179.92)" style="fill:#263238"></rect><rect x="348.24" y="250.13" width="13.88" height="1.93" transform="translate(710.02 502.68) rotate(-179.92)" style="fill:#263238"></rect><rect x="348.27" y="234.29" width="13.88" height="1.93" transform="translate(710.08 471) rotate(-179.92)" style="fill:#fff;opacity:0.5"></rect><rect x="348.24" y="250.13" width="13.88" height="1.93" transform="translate(710.02 502.68) rotate(-179.92)" style="fill:#fff;opacity:0.5"></rect><rect x="110.56" y="255.85" width="263.93" height="154.02" style="fill:#263238"></rect><rect x="110.56" y="255.85" width="263.93" height="154.02" style="fill:#fff;opacity:0.7000000000000001;isolation:isolate"></rect><rect x="123.29" y="256.52" width="2.35" height="152.19" style="opacity:0.1;isolation:isolate"></rect><rect x="141.45" y="256.52" width="2.35" height="152.19" style="opacity:0.1;isolation:isolate"></rect><rect x="159.61" y="256.52" width="2.35" height="152.19" style="opacity:0.1;isolation:isolate"></rect><rect x="177.78" y="256.52" width="2.35" height="152.19" style="opacity:0.1;isolation:isolate"></rect><rect x="195.94" y="256.52" width="2.35" height="152.19" style="opacity:0.1;isolation:isolate"></rect><rect x="214.1" y="256.52" width="2.35" height="152.19" style="opacity:0.1;isolation:isolate"></rect><rect x="232.27" y="256.52" width="2.35" height="152.19" style="opacity:0.1;isolation:isolate"></rect><rect x="250.43" y="256.52" width="2.35" height="152.19" style="opacity:0.1;isolation:isolate"></rect><rect x="268.59" y="256.52" width="2.35" height="152.19" style="opacity:0.1;isolation:isolate"></rect><rect x="286.76" y="256.52" width="2.35" height="152.19" style="opacity:0.1;isolation:isolate"></rect><rect x="304.92" y="256.52" width="2.35" height="152.19" style="opacity:0.1;isolation:isolate"></rect><rect x="323.08" y="256.52" width="2.35" height="152.19" style="opacity:0.1;isolation:isolate"></rect><rect x="341.25" y="256.52" width="2.35" height="152.19" style="opacity:0.1;isolation:isolate"></rect><rect x="359.41" y="256.52" width="2.35" height="152.19" style="opacity:0.1;isolation:isolate"></rect><rect x="107.84" y="403.28" width="269.36" height="10.71" rx="1.31" style="fill:#263238"></rect><rect x="101.77" y="252.08" width="281.51" height="6.07" rx="1.92" style="fill:#263238"></rect><rect x="107.84" y="403.28" width="269.36" height="10.71" rx="1.31" style="fill:#fff;opacity:0.6000000000000001;isolation:isolate"></rect><path d="M103.1,412.45H381.95a1.33,1.33,0,0,1,1.33,1.33v2.08a0,0,0,0,1,0,0H101.77a0,0,0,0,1,0,0v-2.08A1.33,1.33,0,0,1,103.1,412.45Z" style="fill:#263238"></path><path d="M103.1,412.45H381.95a1.33,1.33,0,0,1,1.33,1.33v2.08a0,0,0,0,1,0,0H101.77a0,0,0,0,1,0,0v-2.08A1.33,1.33,0,0,1,103.1,412.45Z" style="fill:#fff;opacity:0.2;isolation:isolate"></path><rect x="101.77" y="252.08" width="281.51" height="6.07" rx="1.92" style="fill:#fff;opacity:0.2;isolation:isolate"></rect><path d="M148.39,231.18V219.44h-2.87v11.74a3.34,3.34,0,0,1-1.47,2.78h0a3.36,3.36,0,0,0-1.48,2.79v15.3h8.78v-15.3a3.39,3.39,0,0,0-1.48-2.79h0A3.35,3.35,0,0,1,148.39,231.18Z" style="fill:#C5963F"></path><path d="M148.39,231.18V219.44h-2.87v11.74a3.34,3.34,0,0,1-1.47,2.78h0a3.36,3.36,0,0,0-1.48,2.79v15.3h8.78v-15.3a3.39,3.39,0,0,0-1.48-2.79h0A3.35,3.35,0,0,1,148.39,231.18Z" style="fill:#fff;opacity:0.6000000000000001"></path><rect x="145.39" y="218.73" width="3.13" height="2.16" style="fill:#C5963F"></rect><rect x="142.63" y="240.72" width="5.37" height="8.55" style="fill:#C5963F"></rect><path d="M240.53,231.18V219.44h2.87v11.74a3.33,3.33,0,0,0,1.48,2.78h0a3.38,3.38,0,0,1,1.47,2.79v15.3h-8.77v-15.3a3.38,3.38,0,0,1,1.47-2.79h0A3.33,3.33,0,0,0,240.53,231.18Z" style="fill:#C5963F"></path><path d="M240.53,231.18V219.44h2.87v11.74a3.33,3.33,0,0,0,1.48,2.78h0a3.38,3.38,0,0,1,1.47,2.79v15.3h-8.77v-15.3a3.38,3.38,0,0,1,1.47-2.79h0A3.33,3.33,0,0,0,240.53,231.18Z" style="fill:#fff;opacity:0.6000000000000001"></path><rect x="240.4" y="218.73" width="3.13" height="2.16" transform="translate(483.93 439.62) rotate(180)" style="fill:#C5963F"></rect><rect x="240.92" y="240.72" width="5.37" height="8.55" transform="translate(487.22 489.99) rotate(180)" style="fill:#C5963F"></rect></g><g id="freepik--Chair--inject-6"><rect x="94.48" y="296.61" width="4.02" height="119.25" style="fill:#263238"></rect><rect x="94.48" y="296.62" width="4.02" height="119.25" style="fill:#fff;opacity:0.4;isolation:isolate"></rect><rect x="74.62" y="363.81" width="43.75" height="4.7" style="fill:#263238"></rect><rect x="74.62" y="363.81" width="43.75" height="4.7" style="fill:#fff;opacity:0.4;isolation:isolate"></rect><polygon points="123.21 415.86 115.92 298.36 111.73 298.36 119.02 415.86 123.21 415.86" style="fill:#263238"></polygon><polygon points="73.97 415.86 81.25 298.36 77.06 298.36 69.77 415.86 73.97 415.86" style="fill:#263238"></polygon><g style="opacity:0.5;isolation:isolate"><polygon points="119.02 415.86 123.21 415.86 116.31 304.77 115.92 298.36 111.73 298.36 112.18 305.66 119.02 415.86" style="fill:#fff"></polygon><polygon points="73.97 415.86 80.59 309.03 81.25 298.36 77.06 298.36 76.39 309.24 69.78 415.86 73.97 415.86" style="fill:#fff"></polygon></g><path d="M77.06,298.36h4.19L80.59,309l-4.2.21Z" style="opacity:0.2;isolation:isolate"></path><path d="M116.32,304.77c-1.32.32-2.69.61-4.14.89l-.45-7.3h4.19Z" style="opacity:0.2;isolation:isolate"></path><polygon points="98.5 296.62 98.5 323.56 94.48 324.66 94.48 296.62 98.5 296.62" style="opacity:0.2;isolation:isolate"></polygon><path d="M118.5,299.57h-44a2.93,2.93,0,0,1-2.93-2.93h0a2.93,2.93,0,0,1,2.93-2.93h44a2.93,2.93,0,0,1,2.93,2.93h0A2.93,2.93,0,0,1,118.5,299.57Z" style="fill:#263238"></path></g><g id="freepik--character-2--inject-6"><rect x="305.64" y="296.61" width="4.02" height="119.25" style="fill:#263238"></rect><rect x="305.64" y="296.62" width="4.02" height="119.25" style="fill:#fff;opacity:0.4;isolation:isolate"></rect><rect x="285.77" y="363.81" width="43.75" height="4.7" style="fill:#263238"></rect><rect x="285.77" y="363.81" width="43.75" height="4.7" style="fill:#fff;opacity:0.4;isolation:isolate"></rect><polygon points="334.37 415.86 327.08 298.36 322.89 298.36 330.18 415.86 334.37 415.86" style="fill:#263238"></polygon><polygon points="285.12 415.86 292.41 298.36 288.22 298.36 280.93 415.86 285.12 415.86" style="fill:#263238"></polygon><g style="opacity:0.5;isolation:isolate"><polygon points="330.18 415.86 334.36 415.86 327.47 304.77 327.08 298.36 322.89 298.36 323.34 305.66 330.18 415.86" style="fill:#fff"></polygon><polygon points="285.12 415.86 291.74 309.03 292.41 298.36 288.22 298.36 287.55 309.24 280.93 415.86 285.12 415.86" style="fill:#fff"></polygon></g><path d="M288.22,298.36h4.19L291.74,309l-4.2.21Z" style="opacity:0.2;isolation:isolate"></path><path d="M327.47,304.77c-1.31.32-2.69.61-4.13.89l-.45-7.3h4.19Z" style="opacity:0.2;isolation:isolate"></path><polygon points="309.66 296.62 309.66 323.56 305.64 324.66 305.64 296.62 309.66 296.62" style="opacity:0.2;isolation:isolate"></polygon><path d="M329.66,299.57h-44a2.93,2.93,0,0,1-2.93-2.93h0a2.93,2.93,0,0,1,2.93-2.93h44a2.93,2.93,0,0,1,2.93,2.93h0A2.93,2.93,0,0,1,329.66,299.57Z" style="fill:#263238"></path><path d="M321,208.36c-.22,4.71.51,7,3.91,18.88s-1.86,17.74-15.77,17.21S295,211.07,298.36,204.53,321,208.36,321,208.36Z" style="fill:#263238"></path><path d="M296.63,226.89c-2.39,0-8.51,19.74-9.63,20.38s-9.68-10-9.68-10v-2.72c0-.75-6.2-4.16-6.2-4.16s-3.09,7.38-1.79,8.59,4.94,2.24,5.21,2.05c0,0,7.38,11.44,11.55,12.74s13.37-17.65,13.37-17.65Z" style="fill:#e4897b"></path><polygon points="252.11 336.63 256.74 337.74 259.08 331.36 261.2 325.55 255.94 323.31 253.91 330.35 252.11 336.63" style="fill:#e4897b"></polygon><polygon points="253.91 330.35 259.08 331.36 261.2 325.55 255.94 323.31 253.91 330.35" style="opacity:0.2;isolation:isolate"></polygon><path d="M254.37,327l6.42,2.39s17.1-42.77,20.62-42.92,39.3,16.31,48.28,7.18-4-31.1-4-31.1l-.77-4.11-23.05.75.61,5.15a34.76,34.76,0,0,0-.91,4.37c-.25,1.49-.41,2.74-.41,2.74h0c-.67-.17-22.33-5.76-30.86,0S254.37,327,254.37,327Z" style="fill:#C5963F"></path><polygon points="291.25 354.87 295.86 353.69 294.98 347.08 294.15 341.02 288.45 341.53 289.93 348.59 291.25 354.87" style="fill:#e4897b"></polygon><polygon points="289.97 348.74 295.01 347.21 294.17 341.08 288.46 341.56 289.97 348.74" style="opacity:0.2;isolation:isolate"></polygon><g style="opacity:0.7000000000000001"><path d="M254.37,327l6.42,2.39s17.1-42.77,20.62-42.92,39.3,16.31,48.28,7.18-4-31.1-4-31.1l-.77-4.11-23.05.75.61,5.15a34.76,34.76,0,0,0-.91,4.37c-.25,1.49-.41,2.74-.41,2.74h0c-.67-.17-22.33-5.76-30.86,0S254.37,327,254.37,327Z" style="fill:#fff"></path></g><path d="M314.19,295.82s-1.46,0-24.09-1c0,0,3.38,28.3,5.22,49.48l-6.76,1.15s-16.17-45.35-16-52.56,8.44-9.31,8.44-9.31S297.12,292.87,314.19,295.82Z" style="fill:#C5963F"></path><path d="M314.19,295.82s-1.46,0-24.09-1c0,0,3.38,28.3,5.22,49.48l-6.76,1.15s-16.17-45.35-16-52.56,8.44-9.31,8.44-9.31S297.12,292.87,314.19,295.82Z" style="fill:#fff;opacity:0.5"></path><path d="M301.16,271.43l12.62,2.63a75.55,75.55,0,0,0-12.21-5.37C301.32,270.18,301.16,271.43,301.16,271.43Z" style="opacity:0.2;isolation:isolate"></path><polygon points="318.83 263.06 325.68 262.53 325.16 259.17 318.46 259.51 318.83 263.06"></polygon><polygon points="303.08 260.29 301.87 260.35 302.48 264.32 303.48 264.24 303.08 260.29"></polygon><polygon points="304.63 264.15 317.68 263.15 317.31 259.57 304.23 260.23 304.63 264.15"></polygon><rect x="307.4" y="259.93" width="5.09" height="3.86" rx="0.44" transform="translate(636.04 503.31) rotate(176.32)" style="fill:#fff"></rect><path d="M244.46,345.61a6.17,6.17,0,0,1,2.23-.57h0s2.67-1.57,5.32-7.68h3a2.45,2.45,0,0,1,2.29,1.63,1.15,1.15,0,0,1,.08.41,15.53,15.53,0,0,1-.23,2.15,57.52,57.52,0,0,1-1.74,7l-.5-.13.92-4.44c.3-1.51-1.28-.05-2,1.47s-1.86,3.05-5.15,2.3C244.8,346.85,243.26,346.3,244.46,345.61Z" style="fill:#263238"></path><path d="M252.55,335.76s-3.72,7.78-5.86,9.28c0,0,2.87,1.71,5.86-2.1,3.86-4.92,4.8-3.55,4.8-3.55a13.77,13.77,0,0,0-.46-2.5C256.31,335.3,252.55,335.76,252.55,335.76Z" style="fill:#e4897b"></path><path d="M285.39,364.13a6.62,6.62,0,0,1,2-1.08h0s2.22-2.16,3.35-8.72l2.89-.72a2.45,2.45,0,0,1,2.6,1.05,1.46,1.46,0,0,1,.18.38,15.5,15.5,0,0,1,.29,2.14,58.77,58.77,0,0,1,0,7.21h-.52l-.16-4.53c-.06-1.54-1.26.25-1.61,1.9s-1.09,3.41-4.46,3.46C286,365.26,284.39,365.09,285.39,364.13Z" style="fill:#263238"></path><path d="M290.91,352.65s-1.76,8.44-3.49,10.4c0,0,3.2,1,5.19-3.42,2.59-5.7,3.83-4.59,3.83-4.59a13.57,13.57,0,0,0-1-2.33C294.46,351.31,290.91,352.65,290.91,352.65Z" style="fill:#e4897b"></path><path d="M299.27,207.39s-1-15.46,12.57-11.84c17.06,4.53,7.15,25-1.25,22.41S299.27,207.39,299.27,207.39Z" style="fill:#263238"></path><path d="M324.91,258.41l-23,1.23s-4.71-13.42-6.38-24.71a53.1,53.1,0,0,1-.57-5.46s0-2.74,1.65-2.58c7.14.69,14.31-.86,19.2-1.35.58,0,1.13-.1,1.64-.12a4,4,0,0,1,4.18,4.14C321.51,234.8,322.07,242.53,324.91,258.41Z" style="fill:#C5963F"></path><path d="M304,226.62a5.36,5.36,0,0,1,.67-.39c.49-.49,1-1.58.69-4.06a20.72,20.72,0,0,0-.62-2.87l6.73-2.11s-1.79,4.92.59,8.12c.71.22,1.23.6,1.16,1.17-.32,2.52-7.28,6.35-7.28,6.35S300.15,229.4,304,226.62Z" style="fill:#e4897b"></path><path d="M304.77,219.3a20.72,20.72,0,0,1,.62,2.87,7.71,7.71,0,0,0,6.11-5Z" style="opacity:0.2;isolation:isolate"></path><path d="M299.91,218.87a3,3,0,0,0,1.56-.75,3,3,0,0,0-.7-4.87.26.26,0,0,0-.35.12.28.28,0,0,0,.12.36,2.45,2.45,0,1,1-1-.25.27.27,0,0,0,0-.53,3,3,0,0,0-3.11,2.84,3,3,0,0,0,2.84,3.11A2.88,2.88,0,0,0,299.91,218.87Z" style="fill:#C5963F"></path><g style="opacity:0.5"><path d="M299.91,218.87a3,3,0,0,0,1.56-.75,3,3,0,0,0-.7-4.87.26.26,0,0,0-.35.12.28.28,0,0,0,.12.36,2.45,2.45,0,1,1-1-.25.27.27,0,0,0,0-.53,3,3,0,0,0-3.11,2.84,3,3,0,0,0,2.84,3.11A2.88,2.88,0,0,0,299.91,218.87Z" style="fill:#fff"></path></g><path d="M307.66,199.64c-6-.41-8.12,2.66-9,8.79-1.06,7.67.27,13.25,7.86,12.12C316.85,219,317.59,200.31,307.66,199.64Z" style="fill:#e4897b"></path><path d="M302.57,208.36a12.24,12.24,0,0,1-1.91,2.36,1.66,1.66,0,0,0,1.53.79Z" style="fill:#de5753"></path><path d="M306.26,208.12c0,.49.19.91.52.94s.62-.34.67-.83-.19-.91-.51-.94S306.31,207.63,306.26,208.12Z" style="fill:#263238"></path><path d="M307.07,207.32l-1-.51S306.49,207.75,307.07,207.32Z" style="fill:#263238"></path><path d="M300.18,207.46c-.05.49.18.91.51.94s.63-.34.67-.83-.18-.91-.51-.94S300.22,207,300.18,207.46Z" style="fill:#263238"></path><path d="M301,206.66l-1-.51S300.41,207.1,301,206.66Z" style="fill:#263238"></path><path d="M309.14,205.44a.37.37,0,0,1-.3-.16,2.69,2.69,0,0,0-2.21-.92.37.37,0,0,1-.39-.34.37.37,0,0,1,.34-.39,3.47,3.47,0,0,1,2.85,1.24.35.35,0,0,1-.09.5A.31.31,0,0,1,309.14,205.44Z" style="fill:#263238"></path><path d="M299.86,204.14a.36.36,0,0,1-.32-.18.37.37,0,0,1,.14-.5,3.15,3.15,0,0,1,2.74-.34.35.35,0,0,1,.18.48.36.36,0,0,1-.47.18,2.43,2.43,0,0,0-2.09.31A.31.31,0,0,1,299.86,204.14Z" style="fill:#263238"></path><path d="M313.51,210.15s-2.46-5.1-1.78-8.86c0,0-11.52-5.64-12.92,6.35,0,0-.44-10.76,9.86-10.31s9.23,15.5,3.62,19.62C312.29,217,315,213.34,313.51,210.15Z" style="fill:#263238"></path><path d="M312.45,211.35a2.63,2.63,0,0,1,3-2.2c1.84.32,2.46,4.19-2.21,4.79C312.56,214,312.23,213.35,312.45,211.35Z" style="fill:#e4897b"></path><path d="M301.49,213.86a15.78,15.78,0,0,1,.63,2.11c.13,0,.26,0,.38,0,1.75-.11,2.53-.74,2.85-1.41a2.19,2.19,0,0,0,.21-1.05,1.94,1.94,0,0,0-.09-.6,8.19,8.19,0,0,1-3.38.93Z" style="fill:#263238"></path><path d="M302.09,213.81l.2.62c1.65-.11,2.79-.41,3.27-1a1.94,1.94,0,0,0-.09-.6A8.19,8.19,0,0,1,302.09,213.81Z" style="fill:#fff"></path><path d="M302.5,215.94c1.75-.11,2.53-.74,2.85-1.41a5.81,5.81,0,0,0-1.91.52A2.14,2.14,0,0,0,302.5,215.94Z" style="fill:#de5753"></path><path d="M307.75,200.1s1.75,10,7.95,10.29-2.52-12.81-2.52-12.81-9.85-4.5-15.2.53.83,9.53.83,9.53S298.94,200,307.75,200.1Z" style="fill:#263238"></path><path d="M311.42,209a.28.28,0,0,1-.13,0c-4.84-2.75-3.69-9.55-3.68-9.62a.26.26,0,0,1,.29-.21.25.25,0,0,1,.2.29c0,.07-1.09,6.53,3.44,9.1a.25.25,0,0,1-.12.47Z" style="fill:#263238"></path><path d="M314.82,219a2.92,2.92,0,0,0,1.55-.74,3,3,0,0,0-.69-4.87.26.26,0,0,0-.23.47,2.45,2.45,0,0,1-1.19,4.65,2.4,2.4,0,0,1-1.7-.8,2.38,2.38,0,0,1-.64-1.76,2.45,2.45,0,0,1,2.55-2.34.26.26,0,1,0,0-.52,3,3,0,0,0-3.11,2.84,2.93,2.93,0,0,0,.78,2.14,3,3,0,0,0,2.65.93Z" style="fill:#C5963F"></path><g style="opacity:0.5"><path d="M314.82,219a2.92,2.92,0,0,0,1.55-.74,3,3,0,0,0-.69-4.87.26.26,0,0,0-.23.47,2.45,2.45,0,0,1-1.19,4.65,2.4,2.4,0,0,1-1.7-.8,2.38,2.38,0,0,1-.64-1.76,2.45,2.45,0,0,1,2.55-2.34.26.26,0,1,0,0-.52,3,3,0,0,0-3.11,2.84,2.93,2.93,0,0,0,.78,2.14,3,3,0,0,0,2.65.93Z" style="fill:#fff"></path></g><polygon points="263.43 327 254.1 323.82 253.7 327.65 260.78 330.15 263.43 327" style="fill:#C5963F"></polygon><polygon points="296.31 342.23 287.01 343.29 288.81 346.93 296.34 345.97 296.31 342.23" style="fill:#C5963F"></polygon><path d="M318.46,228.21c-.4.74-.78,24.37-2,25.62s-20,13.68-20,13.68a42.69,42.69,0,0,1-5.11-1.08c-.93-.42-4.44,2.62-4.44,2.62s8.91,2,9.55,2.37,2.77-1.7,2.77-1.7,21.18-10.4,21.94-11.87S324.92,230,324.92,230Z" style="fill:#e4897b"></path><path d="M318.06,225.42c3.24-.37,6.12.47,8.43,8.34l-10.66,4.45Z" style="fill:#C5963F"></path><path d="M315.83,225.54c-2.95,9.35-16.08,9.57-20.28,9.39a53.1,53.1,0,0,1-.57-5.46s0-2.74,1.65-2.58C303.77,227.58,310.94,226,315.83,225.54Z" style="fill:#e4897b"></path><path d="M315.83,225.55a15.33,15.33,0,0,1-9.86,7.28,39.85,39.85,0,0,1-13.86,0l-3,7.74,11.32,6.26S316.85,232.11,315.83,225.55Z" style="fill:#C5963F"></path><path d="M271.58,240.8l-2.52-.2.09-1.09,2.52.21a2.16,2.16,0,0,0,2.31-2l.4-5a2.15,2.15,0,0,0-2-2.31l-2.52-.2.09-1.08,2.52.2a3.24,3.24,0,0,1,3,3.48l-.41,5A3.24,3.24,0,0,1,271.58,240.8Z" style="fill:#263238"></path><g style="opacity:0.4"><path d="M271.58,240.8l-2.52-.2.09-1.09,2.52.21a2.16,2.16,0,0,0,2.31-2l.4-5a2.15,2.15,0,0,0-2-2.31l-2.52-.2.09-1.08,2.52.2a3.24,3.24,0,0,1,3,3.48l-.41,5A3.24,3.24,0,0,1,271.58,240.8Z" style="fill:#fff"></path></g><rect x="256.62" y="226.86" width="13.34" height="15.82" transform="translate(507.84 489.01) rotate(-175.61)" style="fill:#263238"></rect><rect x="256.62" y="226.86" width="13.34" height="15.82" transform="translate(507.84 489.01) rotate(-175.61)" style="fill:#fff;opacity:0.6000000000000001"></rect><path d="M267.43,242.05l1.47.11.65-8.34a.75.75,0,0,0-.69-.8h0a.74.74,0,0,0-.79.68Z" style="opacity:0.1;isolation:isolate"></path><path d="M263.83,241.77l1.47.11.64-8.34a.75.75,0,0,0-.68-.8h0a.74.74,0,0,0-.79.69Z" style="opacity:0.1;isolation:isolate"></path><path d="M260.22,241.49l1.48.12.64-8.35a.73.73,0,0,0-.68-.79h0a.75.75,0,0,0-.8.68Z" style="opacity:0.1;isolation:isolate"></path><path d="M256.62,241.22l1.47.11.64-8.34a.73.73,0,0,0-.68-.8h0a.74.74,0,0,0-.79.68Z" style="opacity:0.1;isolation:isolate"></path><rect x="256.98" y="225.68" width="13.88" height="1.93" transform="translate(509.71 472.84) rotate(-175.61)" style="fill:#263238"></rect><rect x="255.77" y="241.48" width="13.88" height="1.93" transform="translate(506.08 504.29) rotate(-175.61)" style="fill:#263238"></rect><rect x="256.98" y="225.68" width="13.88" height="1.93" transform="translate(509.71 472.84) rotate(-175.61)" style="fill:#fff;opacity:0.5"></rect><rect x="255.77" y="241.48" width="13.88" height="1.93" transform="translate(506.08 504.29) rotate(-175.61)" style="fill:#fff;opacity:0.5"></rect><path d="M256.75,225.56a4.57,4.57,0,0,0-.48-.35,1.52,1.52,0,0,1-.51-1,1.58,1.58,0,0,1,.15-1.13,2.17,2.17,0,0,1,.77-.6h0c.72.31,1.53-.83,1.23-1.26a1,1,0,0,1-.1-.69.35.35,0,0,1,0-.11.57.57,0,0,1,.11-.16,1.87,1.87,0,0,1,.48-.33,1.44,1.44,0,0,1,1.22.08c.66,1.17,2.77.21,3.81-.81s2.49.67,3.29,2.44,1.4-.62,2.74-.12,1.15,3.14,1.15,3.14a1.14,1.14,0,0,1-.12,2,1,1,0,0,1-1.27-.39l-1.12-.06c0,.65-.93,2.21-1.88,1.89s-.08,1-1.43,1.42-.92-.8-1.44-1.26-.47.73-.27,2.08-.42,1.7-.94,1.41-.05-2.32,0-3.08-.39-1.11-1.38-1.79-.42-1.15-.42-1.15l-3.33-.19A1.79,1.79,0,0,1,256.75,225.56Z" style="fill:#C5963F"></path><path d="M256.75,225.56a4.57,4.57,0,0,0-.48-.35,1.52,1.52,0,0,1-.51-1,1.58,1.58,0,0,1,.15-1.13,2.17,2.17,0,0,1,.77-.6h0c.72.31,1.53-.83,1.23-1.26a1,1,0,0,1-.1-.69.35.35,0,0,1,0-.11.57.57,0,0,1,.11-.16,1.87,1.87,0,0,1,.48-.33,1.44,1.44,0,0,1,1.22.08c.66,1.17,2.77.21,3.81-.81s2.49.67,3.29,2.44,1.4-.62,2.74-.12,1.15,3.14,1.15,3.14a1.14,1.14,0,0,1-.12,2,1,1,0,0,1-1.27-.39l-1.12-.06c0,.65-.93,2.21-1.88,1.89s-.08,1-1.43,1.42-.92-.8-1.44-1.26-.47.73-.27,2.08-.42,1.7-.94,1.41-.05-2.32,0-3.08-.39-1.11-1.38-1.79-.42-1.15-.42-1.15l-3.33-.19A1.79,1.79,0,0,1,256.75,225.56Z" style="fill:#fff;opacity:0.7000000000000001"></path></g><g id="freepik--character-1--inject-6"><g id="freepik--group--inject-6"><path d="M165.13,217.66s-8.85,2-7.92,6.45,11.77,0,11.77,0Z" style="fill:#ebb376"></path><path d="M165.13,217.66s-8.85,2-7.92,6.45,11.77,0,11.77,0Z" style="opacity:0.2;isolation:isolate"></path><path d="M181,210.12c-4.82.4-17.81,7-17.81,7l2.8,10.21,11.28-2.18Z" style="fill:#263238"></path><polygon points="193.27 401.43 187.37 404.82 180.29 391.98 186.19 388.58 193.27 401.43" style="fill:#eec1bb"></polygon><path d="M186.65,404.06l6.56-4.17a.56.56,0,0,1,.71.06l4,4.11a1,1,0,0,1-.11,1.39,1,1,0,0,1-.16.12c-2.29,1.4-3.54,2-6.39,3.85-1.76,1.11-9.19,5.11-11.94,5.3s-3.05-2.41-1.93-2.82c5.64-2.11,7.84-4.8,8.56-6.91A1.89,1.89,0,0,1,186.65,404.06Z" style="fill:#263238"></path><polygon points="186.19 388.58 180.29 391.98 183.94 398.6 189.85 395.2 186.19 388.58" style="opacity:0.2;isolation:isolate"></polygon><path d="M169.71,250.74s-19.33,64.07-18.27,83.11c1.16,20.88,29.23,64.79,29.23,64.79L191.25,392s-19.82-43.27-20.57-59.29c1.1-23.18,25.19-79.48,25.19-79.48Z" style="fill:#C5963F"></path><path d="M185.05,273.26c-5.85,3.57-8.16,18.82-6.93,26.56,3.16-9.8,6.77-19.47,9.66-26.87A2.71,2.71,0,0,0,185.05,273.26Z" style="opacity:0.2;isolation:isolate"></path><polygon points="179.5 399.66 191.97 391.76 189.92 388.25 176.85 396.22 179.5 399.66" style="fill:#C5963F"></polygon><path d="M185.3,406.23a2.18,2.18,0,0,1-1.28.42.83.83,0,0,1-.68-.5.52.52,0,0,1,0-.51c.47-.72,3-.83,3.24-.83a.12.12,0,0,1,.14.08.2.2,0,0,1,0,.18A9.53,9.53,0,0,1,185.3,406.23Zm-1.52-.59a.57.57,0,0,0-.16.15.18.18,0,0,0,0,.2.52.52,0,0,0,.46.35,3.43,3.43,0,0,0,2.1-1.2A6.82,6.82,0,0,0,183.78,405.64Z" style="fill:#C5963F"></path><path d="M186.67,405.1h-.08c-.77.07-2.63-.39-2.86-1.08a.53.53,0,0,1,.24-.61.93.93,0,0,1,.68-.21c1,.1,2,1.58,2.07,1.67a.15.15,0,0,1,0,.16A.18.18,0,0,1,186.67,405.1Zm-2.46-1.47-.06,0c-.16.13-.13.22-.12.26.13.4,1.4.84,2.24.89-.34-.42-1.06-1.22-1.67-1.28a.6.6,0,0,0-.39.09Z" style="fill:#C5963F"></path><polygon points="206.14 409.15 199.58 409.15 199.03 393.94 205.61 393.94 206.14 409.15" style="fill:#eec1bb"></polygon><path d="M198.67,408.39h8a.58.58,0,0,1,.56.45l1.3,5.85a1,1,0,0,1-.75,1.14.76.76,0,0,1-.21,0c-2.58-.05-4.46-.21-7.7-.21-2,0-8,.21-10.78.21s-3.11-2.72-2-3c5.06-1.1,8.86-2.63,10.48-4.08A1.57,1.57,0,0,1,198.67,408.39Z" style="fill:#263238"></path><polygon points="205.61 393.95 199.03 393.95 199.32 401.79 205.89 401.79 205.61 393.95" style="opacity:0.2;isolation:isolate"></polygon><path d="M178.67,252.05s5.34,62.76,8.11,81.8c3,20.88,9.52,66.42,9.52,66.42h12s-2.45-43.59-3.59-64.11c-1.3-23.38-1.92-82.13-1.92-82.13Z" style="fill:#C5963F"></path><polygon points="194.86 400.53 209.02 400.53 209.02 396.3 194.32 396.02 194.86 400.53" style="fill:#C5963F"></polygon><path d="M196.5,409.54a2,2,0,0,1-1.27-.33,1,1,0,0,1-.32-.84.46.46,0,0,1,.27-.43c.72-.38,2.84.93,3.08,1.08a.13.13,0,0,1,.07.15.16.16,0,0,1-.11.13A8.38,8.38,0,0,1,196.5,409.54Zm-1-1.36a.34.34,0,0,0-.2,0s-.09.06-.1.19a.64.64,0,0,0,.21.56,3.2,3.2,0,0,0,2.34.11A6.37,6.37,0,0,0,195.52,408.18Z" style="fill:#C5963F"></path><path d="M198.17,409.31h-.07c-.68-.37-2-1.81-1.85-2.51a.5.5,0,0,1,.5-.41.88.88,0,0,1,.66.2c.76.62.91,2.51.92,2.6a.15.15,0,0,1-.07.14Zm-1.32-2.67h-.07c-.2,0-.22.12-.23.16-.08.43.76,1.52,1.43,2a3.64,3.64,0,0,0-.77-2.05A.54.54,0,0,0,196.85,406.64Z" style="fill:#C5963F"></path><path d="M168.22,254.21l35.11,4.42c4.15-17,12.15-31.46,14.63-37.49a1.73,1.73,0,0,0-.9-2.25c-1.69-.73-3.45-1.42-5.24-2.06a172.71,172.71,0,0,0-24.74-6.6,15.39,15.39,0,0,0-6.13-.11C173.7,224.53,170.08,242.82,168.22,254.21Z" style="fill:#263238"></path><polygon points="173.49 259.39 190.14 261.73 190.66 257.66 173.98 255.53 173.49 259.39"></polygon><polygon points="191.93 257.83 191.41 261.91 202.79 263.51 203.33 259.29 191.93 257.83"></polygon><polygon points="172.72 255.37 167.86 254.74 166.92 258.47 172.22 259.22 172.72 255.37"></polygon><rect x="177.18" y="256.07" width="6.61" height="4.77" rx="0.52" transform="translate(34.29 -20.83) rotate(7.3)" style="fill:#fff"></rect><path d="M215.91,226c-1.22,2.84-2.73,6.39-4.33,10.41-3.18-6,1.3-13.46,1.3-13.46A7.73,7.73,0,0,1,215.91,226Z" style="opacity:0.2;isolation:isolate"></path><path d="M205.59,214.92c-3.4,2.38-10.73.4-10.73.4s-4.5-1.87-3.34-3.21c2.81-.09,4.3-1.21,5.06-2.78a8.14,8.14,0,0,0,.68-3.1c0-.26,0-.52,0-.78s0-.66,0-1l10.11-5.66c-.5,1.2-1.05,2.7-1.54,4.31-1.14,3.79-1.92,8.22-.69,11A5.08,5.08,0,0,0,205.59,214.92Z" style="fill:#ebb376"></path><path d="M205.13,214.09a9.17,9.17,0,0,1-7.85-8.64,8.17,8.17,0,0,1,0-1,32.34,32.34,0,0,1,8.57-1.35C204.68,206.9,203.9,211.33,205.13,214.09Z" style="opacity:0.2;isolation:isolate"></path><path d="M212.16,184.26s3.26,8.46-.64,12.85-7.5-11.9-7.5-11.9Z" style="fill:#263238"></path><path d="M213.74,202c-.06.32-.14.63-.23.94a9.19,9.19,0,0,1-4.14,5.23,8.38,8.38,0,0,1-5.94,1,8.15,8.15,0,0,1-3.86-2c-3.42-3.13-3.52-6.93-4.21-13.34a8.65,8.65,0,0,1,.46-4.07,8.81,8.81,0,0,1,11.27-5.32C213.51,186.58,214.85,196.1,213.74,202Z" style="fill:#ebb376"></path><path d="M205.21,195c0,.52.32.94.67.92s.6-.46.58-1-.33-.94-.67-.92S205.19,194.51,205.21,195Z" style="fill:#263238"></path><path d="M211.14,194.76c0,.52.33.93.67.91s.59-.45.57-1-.32-.93-.66-.91S211.12,194.26,211.14,194.76Z" style="fill:#263238"></path><path d="M209.27,195.11a18.42,18.42,0,0,0,2.72,4.36,3,3,0,0,1-2.5.59Z" style="fill:#d58745"></path><path d="M213.21,192.12a.31.31,0,0,1-.32,0,2.48,2.48,0,0,0-2.22-.15.3.3,0,0,1-.28-.54h0a3,3,0,0,1,2.8.15.31.31,0,0,1,.13.42h0A.57.57,0,0,1,213.21,192.12Z" style="fill:#263238"></path><path d="M203.93,192.73a.34.34,0,0,1-.17,0,.31.31,0,0,1,0-.44h0a3,3,0,0,1,2.69-.83.31.31,0,0,1,.22.37h0a.32.32,0,0,1-.37.23h0a2.45,2.45,0,0,0-2.12.69A.34.34,0,0,1,203.93,192.73Z" style="fill:#263238"></path><path d="M199.7,185.45l.61,2.8a2.1,2.1,0,0,0-.8,2.75c1.14,2.3.14,6.11-1.54,7.76,0,0-.16-1-1-.7s-.09,5.67,1.85,8.07c0,0-2.79-2.07-4.78-7.57-1.84-5.08-2.42-9.4-1.54-11.52Z" style="fill:#263238"></path><path d="M192.8,199.12a6.12,6.12,0,0,0,3.66,2.93c2.07.59,3.11-1.26,2.55-3.22-.52-1.74-2.21-4.2-4.3-3.9A2.74,2.74,0,0,0,192.8,199.12Z" style="fill:#ebb376"></path><path d="M209.13,202.73a19.55,19.55,0,0,0-1.85,2.08l-.43-.23c-1.95-1.08-2.49-2.22-2.51-3.16a2.84,2.84,0,0,1,.32-1.31,2.78,2.78,0,0,1,.43-.65,10.46,10.46,0,0,0,3.39,2.89C208.87,202.6,209.13,202.73,209.13,202.73Z" style="fill:#263238"></path><path d="M208.48,202.35l-.57.6c-1.83-1-3-2-3.25-2.84a2.78,2.78,0,0,1,.43-.65A10.46,10.46,0,0,0,208.48,202.35Z" style="fill:#fff"></path><path d="M206.85,204.58c-1.95-1.08-2.49-2.22-2.51-3.16a7.09,7.09,0,0,1,1.92,1.62A2.66,2.66,0,0,1,206.85,204.58Z" style="fill:#de5753"></path><path d="M199.16,195.11a7.16,7.16,0,0,0,1.89,4.08s3.18-2.58,7.43.93l-.58.55a3.66,3.66,0,0,0-3.88-1.21c-2.54.66-2.36,5.29-.87,6.4s2.44-.8,2.44-.8l1.77,1.07s-.3,1,0,1.32,3.55-3.69,3.78-4.8-2.41-1.23-2.41-1.23l.54-.75s2.47-.37,3.11.07a1.84,1.84,0,0,1,.77,1.11c.94-.64.94-3.32.94-3.32s1.2,5.64-.34,9.73a6.68,6.68,0,0,1-3.12,3.47,29.64,29.64,0,0,0,1.93-2.79,7.5,7.5,0,0,1-6.39,3.35c-3.33,0-5.32-2-7-6.61S198.38,195.89,199.16,195.11Z" style="fill:#263238"></path><path d="M198.37,199.46s-1.34,7.33,2.37,10.42a14.85,14.85,0,0,1-1.3-6.77C199.58,199.11,198.37,199.46,198.37,199.46Z" style="fill:#263238"></path><path d="M200.31,188.25a11.24,11.24,0,0,1,9-.77s2.73-1.35,2.89-3.22-1.81-4.55-3.43-5.12a9.37,9.37,0,0,0-5.06,0l2.7.76s-2.7-.76-6.93,2c-1.61,1.07-6.82.32-8.11,5.56-.64,2.6,1.36,6.58,1.36,6.58Z" style="fill:#263238"></path><path d="M226.13,234.25s8.28,11.2,5.28,16.2S207.79,261,207.79,261s.79,3,.39,4.21-3.43,7.11-3.43,7.11l-5.76-5s2.07-5.33,2.48-6.79,3.24-2.49,3.24-2.49,18.8-9.47,19.14-10.73-4-7-4-7Z" style="fill:#ebb376"></path><path d="M217.06,218.89c4.88,3.1,13.67,16.64,13.67,16.64l-8.85,7.91-10.09-10.29s-.2-7.22,1.09-10.25A7.72,7.72,0,0,1,217.06,218.89Z" style="fill:#263238"></path><path d="M189.75,229.71l2.49.42.19-1.07-2.5-.42a2.15,2.15,0,0,1-1.75-2.48l.83-5a2.17,2.17,0,0,1,2.48-1.76l2.49.42.18-1.07-2.49-.42a3.24,3.24,0,0,0-3.73,2.65l-.84,5A3.25,3.25,0,0,0,189.75,229.71Z" style="fill:#263238"></path><g style="opacity:0.4"><path d="M189.75,229.71l2.49.42.19-1.07-2.5-.42a2.15,2.15,0,0,1-1.75-2.48l.83-5a2.17,2.17,0,0,1,2.48-1.76l2.49.42.18-1.07-2.49-.42a3.24,3.24,0,0,0-3.73,2.65l-.84,5A3.25,3.25,0,0,0,189.75,229.71Z" style="fill:#fff"></path></g><rect x="192.59" y="217.98" width="13.34" height="15.82" transform="matrix(0.99, 0.17, -0.17, 0.99, 41.27, -30.57)" style="fill:#263238"></rect><rect x="192.59" y="217.98" width="13.34" height="15.82" transform="matrix(0.99, 0.17, -0.17, 0.99, 41.27, -30.57)" style="fill:#fff;opacity:0.6000000000000001"></rect><path d="M193.47,231.93l-1.45-.25,1.42-8.25a.74.74,0,0,1,.85-.6h0a.74.74,0,0,1,.6.86Z" style="opacity:0.1;isolation:isolate"></path><path d="M197,232.55l-1.45-.25,1.42-8.25a.75.75,0,0,1,.85-.61h0a.75.75,0,0,1,.61.86Z" style="opacity:0.1;isolation:isolate"></path><path d="M200.6,233.16l-1.46-.25,1.42-8.25a.74.74,0,0,1,.85-.6h0a.74.74,0,0,1,.61.85Z" style="opacity:0.1;isolation:isolate"></path><path d="M204.16,233.77l-1.46-.25,1.42-8.24a.74.74,0,0,1,.86-.61h0a.74.74,0,0,1,.6.86Z" style="opacity:0.1;isolation:isolate"></path><rect x="193.71" y="216.9" width="13.88" height="1.93" transform="translate(39.93 -30.92) rotate(9.78)" style="fill:#263238"></rect><rect x="191.02" y="232.51" width="13.88" height="1.93" transform="translate(42.54 -30.24) rotate(9.78)" style="fill:#263238"></rect><rect x="193.71" y="216.9" width="13.88" height="1.93" transform="translate(39.93 -30.92) rotate(9.78)" style="fill:#fff;opacity:0.5"></rect><rect x="191.02" y="232.51" width="13.88" height="1.93" transform="translate(42.54 -30.24) rotate(9.78)" style="fill:#fff;opacity:0.5"></rect><path d="M207.86,218.56c.17-.09.37-.14.55-.22a1.5,1.5,0,0,0,.75-.85,1.56,1.56,0,0,0,.13-1.12,2.18,2.18,0,0,0-.61-.78h0c-.76.13-1.27-1.18-.87-1.52a.94.94,0,0,0,.26-.65.4.4,0,0,0,0-.11.89.89,0,0,0-.07-.19,2.25,2.25,0,0,0-.38-.43,1.43,1.43,0,0,0-1.21-.22c-.92,1-2.73-.47-3.49-1.72s-2.58,0-3.79,1.56-1.2-.94-2.63-.78-1.88,2.75-1.88,2.75a1.15,1.15,0,0,0-.39,2,1,1,0,0,0,1.33-.07l1.11.21c-.18.63.36,2.37,1.36,2.29s-.17,1,1,1.74,1.09-.56,1.7-.88.28.82-.24,2.09,0,1.75.57,1.59.61-2.23.72-3,.65-1,1.78-1.4.69-1,.69-1l3.27.63A1.83,1.83,0,0,0,207.86,218.56Z" style="fill:#C5963F"></path><path d="M207.86,218.56c.17-.09.37-.14.55-.22a1.5,1.5,0,0,0,.75-.85,1.56,1.56,0,0,0,.13-1.12,2.18,2.18,0,0,0-.61-.78h0c-.76.13-1.27-1.18-.87-1.52a.94.94,0,0,0,.26-.65.4.4,0,0,0,0-.11.89.89,0,0,0-.07-.19,2.25,2.25,0,0,0-.38-.43,1.43,1.43,0,0,0-1.21-.22c-.92,1-2.73-.47-3.49-1.72s-2.58,0-3.79,1.56-1.2-.94-2.63-.78-1.88,2.75-1.88,2.75a1.15,1.15,0,0,0-.39,2,1,1,0,0,0,1.33-.07l1.11.21c-.18.63.36,2.37,1.36,2.29s-.17,1,1,1.74,1.09-.56,1.7-.88.28.82-.24,2.09,0,1.75.57,1.59.61-2.23.72-3,.65-1,1.78-1.4.69-1,.69-1l3.27.63A1.83,1.83,0,0,0,207.86,218.56Z" style="fill:#fff;opacity:0.7000000000000001"></path><path d="M157.35,222.36c3.27-3.62,6.17-2.25,23.66-1.76,0,0,1.25-1.92,1.88-2s9.94.92,9.94.92l-2.21,9s-6.52-.07-8.06-.52c-.65-.19-2.2-2.3-2.2-2.3s-18.66,2.68-21,2.14S155.19,224.76,157.35,222.36Z" style="fill:#ebb376"></path><polygon points="179.5 399.66 191.97 391.76 189.92 388.25 176.85 396.22 179.5 399.66" style="fill:#fff;opacity:0.2"></polygon><polygon points="194.86 400.53 209.02 400.53 209.02 396.3 194.32 396.02 194.86 400.53" style="fill:#fff;opacity:0.2"></polygon></g></g></svg>