<svg xmlns="http://www.w3.org/2000/svg" viewBox="0 0 500 500"><g id="freepik--background-simple--inject-7"><path d="M373.13,61.2C356.31,47,338.48,34.49,320.83,28c-23.64-8.68-48.56-9.29-71.84-6.71C160.46,31.08,36.6,131.65,19.41,239.35S51.42,420,142.1,456.52,316,491.23,367.54,475.21s124.82-57.85,117-147.75c-3.84-44-.36-88.29-11.54-132.26-9.81-38.62-33.37-70.69-60.41-97.24C400.61,86.21,387.23,73.11,373.13,61.2Z" style="fill:#FFC107"></path><path d="M373.13,61.2C356.31,47,338.48,34.49,320.83,28c-23.64-8.68-48.56-9.29-71.84-6.71C160.46,31.08,36.6,131.65,19.41,239.35S51.42,420,142.1,456.52,316,491.23,367.54,475.21s124.82-57.85,117-147.75c-3.84-44-.36-88.29-11.54-132.26-9.81-38.62-33.37-70.69-60.41-97.24C400.61,86.21,387.23,73.11,373.13,61.2Z" style="fill:#fff;opacity:0.7000000000000001"></path></g><g id="freepik--Plants--inject-7"><g style="opacity:0.2"><path d="M120.56,170.83c6.68-1.57,9.67-8.74,8.23-13.29-2-6.23-6.82-6.22-6.29-11.86s10.21-8.21,10.23-8.18-14.59,1.12-20.37,11.5a23.11,23.11,0,0,0-2.47,15.07,8.08,8.08,0,0,0,.84,2.54q-7.83-5.69-16.11-10.86a9.68,9.68,0,0,0,4.81-.27c6.65-2.06,9.07-9.33,7.21-13.69-2.56-6-7.46-5.58-7.41-11.16s9.66-8.85,9.69-8.82S94.18,124,89.21,134.67a22,22,0,0,0-1.2,15,7.84,7.84,0,0,0,1.45,2.95c-2.36-1.39-4.73-2.76-7.14-4.09-.11-.81-.83-5.74-2-10.29-1.3-5.33-4.77-7.09-9.68-8.14-10.91-2.57-33.79-1.72-33.76-1.57.26-.09,14,16.82,20.86,21.75,7.16,4.81,13.31,2,13.35,2q4.77-1.61,9.6-3.1c2.22,1.28,4.43,2.59,6.61,3.93a9.55,9.55,0,0,0-2,.13,26.37,26.37,0,0,0-14.65,7.26c-8.35,8.67-6,20.65-6.15,20.64s.27-8.72,5.65-11.19,6.59,1.53,13.18,1.42c4.78-.08,11.69-4.32,11.89-10.65a7,7,0,0,0-.55-2.92q7,4.63,13.75,9.68a9.14,9.14,0,0,0-1.48,0,25.77,25.77,0,0,0-15,6.23c-8.92,8.13-7.7,20.42-7.79,20.41s1-8.8,6.48-10.89,6.31,2.05,12.77,2.44c4.68.29,11.8-3.46,12.54-9.85a7.3,7.3,0,0,0-.16-2.57q6.19,5,12.06,10.35c-.33,0-.66,0-1,0a25,25,0,0,0-15.17,5.14c-9.42,7.55-9.28,20.07-9.37,20.06s1.74-8.83,7.28-10.52,6,2.56,12.29,3.45c4.56.66,11.86-2.59,13.12-9a7.59,7.59,0,0,0,.1-2.22q5.42,5.34,10.51,11a5.6,5.6,0,0,0-.59-.07,24.11,24.11,0,0,0-15.29,4C120,212.27,119,225,119,224.93s2.45-8.8,8-10.08,5.67,3.06,11.76,4.45c4.42,1,11.84-1.71,13.62-8.1a8.49,8.49,0,0,0,.29-1.83q4.67,5.59,9,11.44l-.2,0a23.24,23.24,0,0,0-15.34,2.89c-10.25,6.23-12.21,19-12.3,19s3.14-8.72,8.71-9.58,5.3,3.54,11.16,5.43c4.25,1.38,11.76-.8,14-7.14a8.79,8.79,0,0,0,.37-1.47q4,5.82,7.6,11.86a22.19,22.19,0,0,0-15.13,1.75C150,249,147,261.78,146.92,261.75s3.8-8.6,9.34-9,4.91,4,10.5,6.39c4.06,1.73,11.61.12,14.37-6.13a9,9,0,0,0,.39-1.1,279.39,279.39,0,0,1,29.86,86.69l5.54-1.94a280.9,280.9,0,0,0-32.19-87.69,7.79,7.79,0,0,0,2,.42c6.44.47,11.45-5.88,11.67-10.93.28-6.92-4-8.4-1.66-13.94s11.75-5.18,11.76-5.14-13.29-3.33-21.84,5.4a27.33,27.33,0,0,0-7.16,14.48c-.05.3-.09.59-.11.88q-4.2-6.71-8.78-13.11a8.31,8.31,0,0,0,2.48.35c6.56,0,11.1-6.66,10.91-11.63-.28-6.8-4.74-7.91-2.83-13.52s11.46-6,11.48-6S179,194,171,203.24A26.34,26.34,0,0,0,165,218a9.61,9.61,0,0,0,0,1.31q-5-6.52-10.41-12.7a8.3,8.3,0,0,0,3,.25c6.63-.56,10.69-7.4,10.08-12.25-.86-6.65-5.46-7.39-4-13s11.12-6.79,11.13-6.75-14.09-1.1-21.35,8.57a25.24,25.24,0,0,0-4.9,14.94,9.67,9.67,0,0,0,.13,1.72q-5.87-6.27-12.15-12.17a8.76,8.76,0,0,0,3.51.11c6.68-1.07,10.21-8.1,9.19-12.81-1.43-6.46-6.16-6.82-5.15-12.48s10.69-7.53,10.71-7.49-14.38,0-20.92,10.06a24.12,24.12,0,0,0-3.7,15,8,8,0,0,0,.43,2.15q-6.81-6-14.06-11.58A9.27,9.27,0,0,0,120.56,170.83Z"></path><path d="M181.78,125.61c6.85.28,11.66-5.82,11.49-10.59-.24-6.54-4.9-7.83-2.87-13.11s12-5.18,12-5.14-14.36-2.83-22.71,5.61a23.05,23.05,0,0,0-6.42,13.85,8.18,8.18,0,0,0,.12,2.67q-6-7.58-12.6-14.78a9.74,9.74,0,0,0,4.71,1c6.95-.2,11.24-6.56,10.62-11.25-.87-6.43-5.7-7.38-4.15-12.74s11.69-5.94,11.7-5.9-14.79-1.81-22.43,7.1a21.94,21.94,0,0,0-5.18,14.11,7.94,7.94,0,0,0,.6,3.23c-1.89-2-3.82-3.93-5.77-5.86.11-.81.73-5.75.87-10.44.17-5.48-2.69-8.11-7.14-10.43-9.82-5.41-32.08-10.74-32.1-10.58.27,0,9,20,14.25,26.55,5.61,6.56,12.3,5.49,12.33,5.49q5-.27,10.08-.41,2.7,2.74,5.32,5.56a10.28,10.28,0,0,0-1.94-.41,26.49,26.49,0,0,0-16.07,3.06c-10.37,6.12-11.37,18.27-11.46,18.24s2.6-8.33,8.45-9.26,5.93,3.24,12.31,4.9c4.62,1.21,12.41-1,14.31-7.07a7,7,0,0,0,.25-3q5.55,6.38,10.65,13a9.4,9.4,0,0,0-1.43-.39,25.71,25.71,0,0,0-16.07,2c-10.77,5.44-12.9,17.6-13,17.57s3.33-8.21,9.17-8.75,5.52,3.67,11.64,5.78c4.43,1.54,12.3-.17,14.73-6.13a7.58,7.58,0,0,0,.53-2.51q4.63,6.48,8.84,13.21a7.68,7.68,0,0,0-1-.31,25,25,0,0,0-16,.88c-11.1,4.74-14.32,16.84-14.41,16.8s4-8,9.84-8.18,5.09,4.08,10.91,6.63c4.22,1.86,12.12.68,15.06-5.15a8,8,0,0,0,.69-2.11q3.78,6.6,7.18,13.38l-.55-.22a24.16,24.16,0,0,0-15.82-.22c-11.36,4-15.65,16-15.72,15.93s4.72-7.82,10.43-7.56,4.63,4.47,10.13,7.45c4,2.16,11.86,1.53,15.29-4.15a7.89,7.89,0,0,0,.77-1.68q3,6.65,5.61,13.44l-.18-.09a23.18,23.18,0,0,0-15.55-1.34c-11.55,3.25-16.87,15-16.94,15s5.36-7.56,11-6.9,4.16,4.83,9.29,8.23c3.73,2.47,11.55,2.39,15.44-3.11a9.16,9.16,0,0,0,.75-1.31q2.25,6.66,4.14,13.46a22.16,22.16,0,0,0-15-2.38c-11.67,2.46-18,14-18.05,13.93s6-7.26,11.43-6.19,3.65,5.18,8.4,9c3.44,2.76,11.14,3.24,15.48-2a8.72,8.72,0,0,0,.67-1,279.43,279.43,0,0,1,5.49,91.52l5.86-.38a280.84,280.84,0,0,0-7.47-93.11,7.8,7.8,0,0,0,1.84.95c6.08,2.18,12.61-2.59,14.18-7.4,2.13-6.59-1.59-9.16,2.14-13.87s12.72-1.84,12.71-1.79c0-.1-11.9-6.78-22.48-.67a27.29,27.29,0,0,0-10.79,12c-.13.27-.24.54-.34.81q-2.25-7.57-4.94-15a8.34,8.34,0,0,0,2.29,1c6.33,1.71,12.49-3.44,13.63-8.28,1.56-6.63-2.44-8.89.9-13.78s12.67-2.71,12.67-2.67-12.63-5.82-22.75.94A26.25,26.25,0,0,0,211.89,183a9.44,9.44,0,0,0-.38,1.25q-3.07-7.62-6.63-15a8.48,8.48,0,0,0,2.79,1c6.55,1.24,12.29-4.26,13-9.1,1-6.63-3.27-8.58-.34-13.63S232.86,144,232.86,144s-13.28-4.85-22.87,2.52a25.24,25.24,0,0,0-8.73,13.08,8.55,8.55,0,0,0-.33,1.69q-4-7.62-8.44-15a8.72,8.72,0,0,0,3.35,1.05c6.72.76,12-5.06,12.29-9.87.36-6.6-4.1-8.23-1.61-13.41s12.32-4.38,12.33-4.34S205,115.87,196,123.8a24.15,24.15,0,0,0-7.6,13.51,8.55,8.55,0,0,0-.17,2.18q-4.93-7.62-10.42-14.93A9.25,9.25,0,0,0,181.78,125.61Z"></path><path d="M389.1,170.83c-6.68-1.57-9.67-8.74-8.23-13.29,2-6.23,6.82-6.22,6.29-11.86s-10.21-8.21-10.23-8.18,14.59,1.12,20.37,11.5a23.11,23.11,0,0,1,2.47,15.07,8.33,8.33,0,0,1-.83,2.54q7.81-5.69,16.1-10.86a9.69,9.69,0,0,1-4.81-.27c-6.65-2.06-9.07-9.33-7.21-13.69,2.56-6,7.47-5.58,7.41-11.16s-9.66-8.85-9.68-8.82,14.73,2.22,19.7,12.86a22,22,0,0,1,1.2,15,8,8,0,0,1-1.44,2.95c2.35-1.39,4.73-2.76,7.13-4.09.11-.81.84-5.74,2-10.29,1.31-5.33,4.77-7.09,9.68-8.14,10.91-2.57,33.79-1.72,33.76-1.57-.26-.09-14,16.82-20.86,21.75-7.16,4.81-13.31,2-13.35,2q-4.77-1.61-9.59-3.1-3.35,1.92-6.62,3.93a9.51,9.51,0,0,1,2,.13A26.33,26.33,0,0,1,439,160.46c8.36,8.67,6.05,20.65,6.15,20.64-.05,0-.27-8.72-5.65-11.19s-6.59,1.53-13.18,1.42c-4.78-.08-11.68-4.32-11.88-10.65a6.88,6.88,0,0,1,.55-2.92q-7.06,4.63-13.76,9.68a9.14,9.14,0,0,1,1.48,0,25.72,25.72,0,0,1,14.95,6.23c8.92,8.13,7.7,20.42,7.8,20.41s-1-8.8-6.49-10.89-6.31,2.05-12.77,2.44c-4.68.29-11.8-3.46-12.54-9.85a7.54,7.54,0,0,1,.16-2.57q-6.19,5-12.06,10.35c.33,0,.67,0,1,0a25,25,0,0,1,15.16,5.14c9.43,7.55,9.28,20.07,9.37,20.06s-1.74-8.83-7.28-10.52-6,2.56-12.29,3.45c-4.56.66-11.85-2.59-13.12-9a7.59,7.59,0,0,1-.1-2.22q-5.41,5.34-10.51,11a5.93,5.93,0,0,1,.59-.07,24.14,24.14,0,0,1,15.3,4c9.87,6.91,10.78,19.6,10.87,19.57s-2.45-8.8-8-10.08-5.67,3.06-11.76,4.45c-4.41,1-11.84-1.71-13.62-8.1a8.49,8.49,0,0,1-.29-1.83q-4.66,5.59-9,11.44l.2,0a23.23,23.23,0,0,1,15.34,2.89c10.26,6.23,12.22,19,12.3,19s-3.14-8.72-8.71-9.58-5.3,3.54-11.16,5.43c-4.25,1.38-11.76-.8-14-7.14a8.79,8.79,0,0,1-.37-1.47q-3.94,5.82-7.6,11.86a22.19,22.19,0,0,1,15.13,1.75c10.58,5.5,13.56,18.3,13.64,18.27s-3.8-8.6-9.34-9-4.91,4-10.5,6.39c-4.06,1.73-11.61.12-14.37-6.13a9,9,0,0,1-.39-1.1,279.63,279.63,0,0,0-29.85,86.69l-5.55-1.94a280.91,280.91,0,0,1,32.2-87.69,8,8,0,0,1-2,.42c-6.44.47-11.45-5.88-11.67-10.93-.28-6.92,4-8.4,1.66-13.94s-11.75-5.18-11.76-5.14,13.29-3.33,21.84,5.4a27.26,27.26,0,0,1,7.16,14.48c.05.3.09.59.12.88q4.2-6.71,8.77-13.11a8.31,8.31,0,0,1-2.48.35c-6.55,0-11.1-6.66-10.91-11.63.29-6.8,4.74-7.91,2.84-13.52s-11.47-6-11.49-6,13.74-2.21,21.67,7a26.32,26.32,0,0,1,6,14.76,9.61,9.61,0,0,1,0,1.31q5-6.52,10.42-12.7a8.34,8.34,0,0,1-3,.25c-6.64-.56-10.7-7.4-10.08-12.25.85-6.65,5.45-7.39,4-13S335,174.78,335,174.82s14.09-1.1,21.36,8.57a25.29,25.29,0,0,1,4.89,14.94,9.67,9.67,0,0,1-.13,1.72q5.87-6.27,12.15-12.17a8.76,8.76,0,0,1-3.51.11c-6.67-1.07-10.21-8.1-9.18-12.81,1.42-6.46,6.15-6.82,5.15-12.48S355,155.17,355,155.21s14.38,0,20.93,10.06a24.19,24.19,0,0,1,3.7,15,8.82,8.82,0,0,1-.43,2.15q6.81-6,14.05-11.58A9.27,9.27,0,0,1,389.1,170.83Z"></path><path d="M327.88,125.61c-6.85.28-11.66-5.82-11.49-10.59.25-6.54,4.9-7.83,2.87-13.11s-12-5.18-12.05-5.14,14.36-2.83,22.71,5.61a23,23,0,0,1,6.42,13.85,7.92,7.92,0,0,1-.12,2.67q6-7.58,12.6-14.78a9.74,9.74,0,0,1-4.71,1c-6.95-.2-11.23-6.56-10.61-11.25.86-6.43,5.69-7.38,4.14-12.74s-11.68-5.94-11.7-5.9,14.79-1.81,22.44,7.1a22,22,0,0,1,5.17,14.11,7.94,7.94,0,0,1-.6,3.23q2.83-3,5.78-5.86c-.12-.81-.74-5.75-.88-10.44-.17-5.48,2.69-8.11,7.14-10.43,9.82-5.41,32.09-10.74,32.1-10.58-.27,0-9,20-14.25,26.55-5.61,6.56-12.29,5.49-12.33,5.49q-5-.27-10.08-.41-2.7,2.74-5.31,5.56a10,10,0,0,1,1.93-.41,26.48,26.48,0,0,1,16.07,3.06c10.38,6.12,11.37,18.27,11.46,18.24s-2.59-8.33-8.44-9.26-5.94,3.24-12.32,4.9c-4.62,1.21-12.41-1-14.31-7.07a7,7,0,0,1-.25-3q-5.55,6.38-10.65,13a9.4,9.4,0,0,1,1.43-.39,25.71,25.71,0,0,1,16.07,2c10.77,5.44,12.9,17.6,13,17.57s-3.34-8.21-9.18-8.75-5.52,3.67-11.64,5.78c-4.43,1.54-12.3-.17-14.72-6.13a7.35,7.35,0,0,1-.54-2.51q-4.62,6.48-8.83,13.21a7,7,0,0,1,.95-.31,25,25,0,0,1,16,.88c11.1,4.74,14.33,16.84,14.41,16.8s-4.05-8-9.84-8.18-5.09,4.08-10.91,6.63c-4.22,1.86-12.12.68-15.06-5.15a8,8,0,0,1-.69-2.11q-3.78,6.6-7.18,13.38l.55-.22a24.16,24.16,0,0,1,15.82-.22c11.36,4,15.65,16,15.73,15.93s-4.73-7.82-10.44-7.56-4.63,4.47-10.13,7.45c-4,2.16-11.86,1.53-15.29-4.15a8.42,8.42,0,0,1-.77-1.68q-3,6.65-5.61,13.44l.18-.09a23.18,23.18,0,0,1,15.55-1.34c11.56,3.25,16.87,15,16.94,15s-5.36-7.56-11-6.9-4.15,4.83-9.29,8.23c-3.72,2.47-11.54,2.39-15.44-3.11a9.16,9.16,0,0,1-.75-1.31q-2.25,6.66-4.14,13.46a22.16,22.16,0,0,1,15-2.38c11.67,2.46,18,14,18,13.93s-6-7.26-11.42-6.19-3.65,5.18-8.4,9c-3.44,2.76-11.15,3.24-15.49-2a8.72,8.72,0,0,1-.67-1,279.16,279.16,0,0,0-5.48,91.52l-5.86-.38A280.84,280.84,0,0,1,287,218.08a7.8,7.8,0,0,1-1.84.95c-6.08,2.18-12.61-2.59-14.18-7.4-2.13-6.59,1.6-9.16-2.14-13.87s-12.71-1.84-12.71-1.79c0-.1,11.91-6.78,22.48-.67a27.29,27.29,0,0,1,10.79,12c.13.27.24.54.35.81q2.25-7.57,4.93-15a8.34,8.34,0,0,1-2.29,1c-6.33,1.71-12.49-3.44-13.63-8.28-1.56-6.63,2.44-8.89-.9-13.78s-12.66-2.71-12.67-2.67,12.64-5.82,22.75.94A26.25,26.25,0,0,1,297.77,183a9.44,9.44,0,0,1,.38,1.25q3.09-7.62,6.63-15a8.48,8.48,0,0,1-2.79,1c-6.55,1.24-12.29-4.26-13-9.1-1-6.63,3.27-8.58.35-13.63S276.81,144,276.8,144s13.28-4.85,22.87,2.52a25.24,25.24,0,0,1,8.73,13.08,8.55,8.55,0,0,1,.33,1.69q4-7.62,8.44-15a8.72,8.72,0,0,1-3.35,1.05c-6.71.76-12-5.06-12.28-9.87-.37-6.6,4.09-8.23,1.6-13.41s-12.32-4.38-12.33-4.34,13.86-3.85,22.86,4.08a24.09,24.09,0,0,1,7.6,13.51,8.55,8.55,0,0,1,.17,2.18q4.94-7.62,10.42-14.93A9.21,9.21,0,0,1,327.88,125.61Z"></path></g></g><g id="freepik--beer-5--inject-7"><rect x="321.69" y="234.69" width="66.09" height="5.61" style="fill:#d4d4d4;stroke:#263238;stroke-miterlimit:10"></rect><path d="M319.49,444h69.7a0,0,0,0,1,0,0v4.39a6.19,6.19,0,0,1-6.19,6.19H325.68a6.19,6.19,0,0,1-6.19-6.19V444A0,0,0,0,1,319.49,444Z" style="fill:#d4d4d4;stroke:#263238;stroke-miterlimit:10"></path><path d="M396.79,259.62l-9-19.78H321.65l-9,19.78a16.39,16.39,0,0,0-1.48,6.82v170.9a11.14,11.14,0,0,0,9.52,11.05h68.09a11.16,11.16,0,0,0,9.52-11.05V266.44A16.39,16.39,0,0,0,396.79,259.62Z" style="fill:#FFC107;stroke:#263238;stroke-miterlimit:10"></path><path d="M318.61,436.73V266.36a16.31,16.31,0,0,1,1.49-6.8l8.8-19.22h-5.34l-8.81,19.22a16.45,16.45,0,0,0-1.48,6.8V436.73a11.15,11.15,0,0,0,3.6,8.19,11.27,11.27,0,0,0,5.92,2.83h5.34a11.27,11.27,0,0,1-5.92-2.83A11.15,11.15,0,0,1,318.61,436.73Z" style="fill:#fff"></path><path d="M388.8,436.73V266.36a16.45,16.45,0,0,0-1.48-6.8l-8.81-19.22h5.35l8.8,19.22a16.45,16.45,0,0,1,1.48,6.8V436.73a11.11,11.11,0,0,1-3.6,8.19,11.27,11.27,0,0,1-5.92,2.83h-5.34a11.27,11.27,0,0,0,5.92-2.83A11.15,11.15,0,0,0,388.8,436.73Z" style="fill:#263238"></path><rect x="327.24" y="280.75" width="53.79" height="126.74" rx="22.74" style="fill:#fff;stroke:#263238;stroke-miterlimit:10"></rect><rect x="316.23" y="325.98" width="76.21" height="36.27" style="fill:#263238;stroke:#263238;stroke-miterlimit:10"></rect><path d="M326.09,348.92a81.29,81.29,0,0,1,7.61-14.84,3.33,3.33,0,0,1-2.57-1.79c-.25-.58-.05-1,.79-1,2.53-.16,6.19-2.16,9.39-2.45,2.91-.25,5.45,1.29,5.45,6.07A7.86,7.86,0,0,1,345,339.4a17.73,17.73,0,0,1-6,4.74,4.4,4.4,0,0,1,2.25,3.7,5.46,5.46,0,0,1-1.62,3.75c-1.71,1.87-5.08,3.36-7.4,3.9a8.54,8.54,0,0,1-1.75.17,4.26,4.26,0,0,1-2-.42c-1.74-.83-3-2.49-3-3.82A8.74,8.74,0,0,1,326.09,348.92Zm12.19-2.08c0-.74-.75-1.41-2.62-1.58a9.62,9.62,0,0,1-4,.17,42.23,42.23,0,0,0-2.62,6c-.38,1.16-.05,1.58.83,1.45a13,13,0,0,0,7.57-4.07A3.38,3.38,0,0,0,338.28,346.84Zm-5.16-4.32c6.82-1.83,11.15-6.28,11.1-9.06a1.4,1.4,0,0,0-1.41-1.42c-1.12,0-2.83.63-5.53,1.54a8,8,0,0,1-1.25,4C335.58,338.45,335,339.44,333.12,342.52Z" style="fill:#fff"></path><path d="M350.17,349.34a5.34,5.34,0,0,1-2.95-.91,8.76,8.76,0,0,0-.38,2.45c0,1.83.75,3.12,2,3.12,3.16,0,6-3.08,7.65-5.66.46-.66,1-.75,1.33.09a3.54,3.54,0,0,1-.58,2.7,10.84,10.84,0,0,1-8.32,4.53c-3.86,0-6-2.49-6-5.82a10.33,10.33,0,0,1,1.28-4.78c2.17-4.41,5.53-6.61,7.95-6.61a2.66,2.66,0,0,1,1.45.33,7.47,7.47,0,0,1,2.58,2.16,3,3,0,0,1,.42,1.54C356.62,345,353.83,349.34,350.17,349.34Zm-2.37-2.5a1.67,1.67,0,0,0,.92.3c1,0,2.32-1.25,3.16-2.37,1.2-1.63,2.07-3.58,1.62-3.95C352.87,340.32,349.8,342.85,347.8,346.84Z" style="fill:#fff"></path><path d="M384.56,351.25a7.63,7.63,0,0,1-6.57,4.37c-2.62,0-4.08-1.83-4.08-4.28a7.25,7.25,0,0,1,.42-2.29,20.3,20.3,0,0,1,4-6.49,8.29,8.29,0,0,1-3.08.71c-3.41,7.11-7.85,12.18-12.93,12.27-3.82,0-5.94-2.46-5.94-5.74a10.89,10.89,0,0,1,1.24-4.78c2.17-4.25,5.57-6.57,7.95-6.57a2.63,2.63,0,0,1,1.41.33,10,10,0,0,1,2.58,2.16,2.88,2.88,0,0,1,.37,1.37,7.88,7.88,0,0,1-1.74,4.37,6,6,0,0,1-4.62,2.54,5,5,0,0,1-2.95-.92,8.82,8.82,0,0,0-.38,2.45c0,1.92.75,3.16,1.92,3.16,4.15,0,8.48-6,10.68-11.06a2.12,2.12,0,0,1-1.16-1.83c0-2.2,2.78-5.24,4.2-5.28.87,0,1.2.54,1.2,1.46a12.49,12.49,0,0,1-.79,3.49,12.14,12.14,0,0,0,3.62-1.75c.67-.41,1.25-.7,1.75,0a5.33,5.33,0,0,1,1.25,2.87,2.33,2.33,0,0,1-.71,1.58,26.38,26.38,0,0,0-4.58,7,7.26,7.26,0,0,0-.29,1.79c0,1.08.34,1.79.92,1.79,1.5,0,3.87-2.54,5.11-5.45.38-.79,1-1,1.42,0A3.76,3.76,0,0,1,384.56,351.25Zm-23.37-4.49a2,2,0,0,0,.91.25c1.08,0,2.21-1.2,3-2.33,1.16-1.49,2.12-3.53,1.7-3.86-.74-.59-3.57,1.83-5.28,5.19A7,7,0,0,0,361.19,346.76Z" style="fill:#fff"></path></g><g id="freepik--beer-6--inject-7"><path d="M438,447.25l-.33-.11A17,17,0,0,1,426,431V420H415.4v11a17,17,0,0,1-11.61,16.14l-.34.11c-8.2,2.63-17.34,4.32-22,5.74a.8.8,0,0,0,.24,1.56h78A.8.8,0,0,0,460,453C455.29,451.57,446.16,449.88,438,447.25Z" style="fill:#fff;stroke:#263238;stroke-miterlimit:10"></path><path d="M387.23,304.58c-2.53,6.32-13.7,36.11-10.14,60.8,4,27.78,16.05,45.06,33.65,53.39a20.24,20.24,0,0,0,8.92,2h3.85a19.43,19.43,0,0,0,8.44-2c17.6-8.33,29.63-25.61,33.64-53.39,3.57-24.69-7.6-54.48-10.13-60.8Z" style="fill:#fff;stroke:#263238;stroke-miterlimit:10"></path><path d="M381.73,320.94c-3.49,12.37-6.81,29.35-4.64,44.44,4,27.78,16.05,45.06,33.65,53.39a20.24,20.24,0,0,0,8.92,2h3.85a19.43,19.43,0,0,0,8.44-2c17.6-8.33,29.63-25.61,33.64-53.39,2.18-15.09-1.14-32.07-4.63-44.44Z" style="fill:#FFC107;stroke:#263238;stroke-miterlimit:10"></path><path d="M453.42,453c-4-1.42-11.95-3.11-19.06-5.74l-.29-.11c-6-2.3-10.06-8.82-10.06-16.14V420h-6.89v11c0,7.32-4,13.84-10.05,16.14l-.3.11c-7.1,2.63-15,4.32-19,5.74-.76.26-.58,1.56.21,1.56h2.76a.75.75,0,0,1,.47-.71c4-1.46,12-3.19,19.06-5.89l.29-.11c6-2.35,10.06-9,10.06-16.56,0,7.51,4,14.21,10.06,16.56l.29.11c7.1,2.7,15,4.43,19.06,5.89a.75.75,0,0,1,.47.71h2.76C454,454.55,454.18,453.25,453.42,453Z" style="fill:#263238"></path><path d="M420.43,451.16c-10.94,0-19.81.51-19.81,1.14s8.87,1.14,19.81,1.14,19.8-.51,19.8-1.14S431.36,451.16,420.43,451.16Z" style="fill:#263238"></path><path d="M429.38,333a3.05,3.05,0,1,1-3.05-3.05A3,3,0,0,1,429.38,333Z" style="fill:none;stroke:#fff;stroke-miterlimit:10"></path><path d="M418.52,352.87a3,3,0,1,1-3-3.05A3.06,3.06,0,0,1,418.52,352.87Z" style="fill:none;stroke:#fff;stroke-miterlimit:10"></path><path d="M442.92,358.32a1.35,1.35,0,1,1-1.35-1.35A1.35,1.35,0,0,1,442.92,358.32Z" style="fill:none;stroke:#fff;stroke-miterlimit:10"></path><path d="M400.42,334.14a1.53,1.53,0,1,1-1.53-1.53A1.52,1.52,0,0,1,400.42,334.14Z" style="fill:none;stroke:#fff;stroke-miterlimit:10"></path><path d="M387,365.88c-3.24-23.29,5.8-51,9.27-60.46h-5.43c-2.51,6.28-13.6,35.85-10.06,60.36,4,27.58,15.93,44.73,33.4,53a20.53,20.53,0,0,0,5.54,1.71C402.65,411.79,391,394.1,387,365.88Z" style="fill:#fff"></path><path d="M455.57,365.88c3.24-23.29-5.8-51-9.26-60.46h5.42c2.51,6.28,13.6,35.85,10.06,60.36-4,27.58-15.93,44.73-33.39,53a20.59,20.59,0,0,1-5.55,1.71C439.94,411.79,451.64,394.1,455.57,365.88Z" style="fill:#263238"></path></g><g id="freepik--beer-3--inject-7"><path d="M229.75,315.58c-1.47-11.46-17.38-27.43-17.38-27.43l-10.85-54.33s2.34-1.48,3.5-6.47c.66-2.83-5.93-22.93-5.93-22.93l-13.24.46-13.24-.52s-6.48,20-6,22.91c.86,5.4,3.48,6.48,3.48,6.48L159,288S143,304,141.49,315.4,141.25,433,141.25,433s-2.83,8.43,5.87,15.91a23.57,23.57,0,0,0,15.38,5.56l15.57,0,7.05,0h7.47l15.58,0a23.58,23.58,0,0,0,15.4-5.5c8.73-7.45,5.94-15.88,5.94-15.88S231.22,327.05,229.75,315.58Z" style="fill:#828282;stroke:#263238;stroke-miterlimit:10"></path><path d="M175.37,204.88l4.15-.15-9.53-.37s0,.11-.1.3Z" style="fill:#263238"></path><path d="M227.13,315.13c-1.47-11.41-17.38-27.32-17.38-27.32L198.9,233.7s2.34-1.47,3.5-6.45c.66-2.81-5.93-22.83-5.93-22.83l-7.78.27c.78,2.37,6.46,19.94,5.85,22.56-1.16,5-3.5,6.45-3.5,6.45l10.85,54.11s15.91,15.91,17.38,27.32-.25,117.1-.25,117.1,2.8,8.41-5.93,15.83a23.63,23.63,0,0,1-15,5.45l7.47,0a23.66,23.66,0,0,0,15.4-5.47c8.73-7.42,5.94-15.83,5.94-15.83S228.6,326.55,227.13,315.13Z" style="fill:#263238"></path><path d="M196.57,204.88l-4.15-.15,9.53-.37.09.3Z" style="fill:#fff"></path><path d="M144.81,315.13c1.47-11.41,17.38-27.32,17.38-27.32L173,233.7s-2.35-1.47-3.5-6.45c-.66-2.81,5.93-22.83,5.93-22.83l7.77.27c-.77,2.37-6.45,19.94-5.84,22.56,1.16,5,3.5,6.45,3.5,6.45l-10.85,54.11s-15.91,15.91-17.38,27.32.24,117.1.24,117.1-2.79,8.41,5.94,15.83a23.61,23.61,0,0,0,15,5.45l-7.48,0A23.65,23.65,0,0,1,151,448.06c-8.73-7.42-5.94-15.83-5.94-15.83S143.34,326.55,144.81,315.13Z" style="fill:#fff"></path><path d="M171.91,309.5c0,2.9-3.42,5.25-7.63,5.25s-7.63-2.35-7.63-5.25,3.41-5.25,7.63-5.25S171.91,306.6,171.91,309.5Z" style="fill:#fff"></path><path d="M198.51,208.4l-24.41-.05a6.48,6.48,0,0,1-6.47-6.49h0a6.48,6.48,0,0,1,6.49-6.46l24.42,0a6.47,6.47,0,0,1,6.46,6.49h0A6.48,6.48,0,0,1,198.51,208.4Z" style="fill:#828282;stroke:#263238;stroke-miterlimit:10"></path><ellipse cx="175.68" cy="201.43" rx="4.94" ry="3.39" style="fill:#fff"></ellipse><path d="M190.32,202c0,1.37,2.66,2.48,5.93,2.48s5.94-1.11,5.94-2.48-2.66-2.48-5.94-2.48S190.32,200.6,190.32,202Z" style="fill:#263238"></path><path d="M210.27,277.62l-5.2-26h-5.19a17.8,17.8,0,0,0-28.25-.06h-5.2l-5.3,26Z" style="fill:#FFC107;stroke:#263238;stroke-miterlimit:10"></path><path d="M141.2,429.06l88.37.18c.23-15.13,1-70.39.71-98.3l-89.38-.19C140.48,358.66,141,413.93,141.2,429.06Z" style="fill:#FFC107;stroke:#263238;stroke-miterlimit:10"></path><circle cx="185.49" cy="380.23" r="36.38" transform="translate(-214.53 242.52) rotate(-45)" style="fill:#fff;stroke:#263238;stroke-miterlimit:10"></circle><path d="M156.75,382.38a81,81,0,0,1,7.61-14.85,3.37,3.37,0,0,1-2.58-1.79c-.25-.58,0-.95.79-1,2.54-.16,6.2-2.16,9.4-2.45,2.91-.25,5.45,1.29,5.45,6.07a7.86,7.86,0,0,1-1.79,4.49,17.83,17.83,0,0,1-6,4.74,4.4,4.4,0,0,1,2.25,3.7,5.43,5.43,0,0,1-1.63,3.75c-1.7,1.87-5.07,3.37-7.4,3.91a9.15,9.15,0,0,1-1.74.16,4.39,4.39,0,0,1-2-.41c-1.74-.84-3-2.5-3-3.83A8.61,8.61,0,0,1,156.75,382.38Zm12.19-2.08c0-.75-.75-1.42-2.62-1.58a9.8,9.8,0,0,1-4,.16,42.23,42.23,0,0,0-2.62,6c-.37,1.17,0,1.58.83,1.46a13,13,0,0,0,7.57-4.08A3.37,3.37,0,0,0,168.94,380.3ZM163.78,376c6.82-1.83,11.14-6.28,11.1-9.06a1.4,1.4,0,0,0-1.41-1.42c-1.12,0-2.83.63-5.53,1.54a8,8,0,0,1-1.25,4C166.23,371.9,165.65,372.9,163.78,376Z" style="fill:#263238"></path><path d="M180.83,382.79a5.4,5.4,0,0,1-3-.91,9.11,9.11,0,0,0-.37,2.45c0,1.83.75,3.12,2,3.12,3.16,0,5.94-3.08,7.65-5.66.46-.66,1-.74,1.33.09a3.64,3.64,0,0,1-.58,2.7,10.83,10.83,0,0,1-8.32,4.53c-3.87,0-6-2.49-6-5.82a10.35,10.35,0,0,1,1.29-4.78c2.16-4.41,5.53-6.61,7.94-6.61a2.7,2.7,0,0,1,1.46.33,7.77,7.77,0,0,1,2.58,2.16,3,3,0,0,1,.41,1.54C187.27,378.43,184.49,382.79,180.83,382.79Zm-2.37-2.49a1.73,1.73,0,0,0,.91.29c1,0,2.33-1.25,3.16-2.37,1.21-1.62,2.08-3.58,1.62-4C183.53,373.77,180.45,376.3,178.46,380.3Z" style="fill:#263238"></path><path d="M215.22,384.7a7.63,7.63,0,0,1-6.57,4.37c-2.62,0-4.08-1.83-4.08-4.28a7,7,0,0,1,.42-2.29,20.05,20.05,0,0,1,4-6.49,8.29,8.29,0,0,1-3.08.71C202.49,383.83,198,388.9,193,389c-3.83,0-5.95-2.46-5.95-5.74a10.92,10.92,0,0,1,1.25-4.78c2.16-4.24,5.57-6.57,7.94-6.57a2.67,2.67,0,0,1,1.42.33,9.72,9.72,0,0,1,2.57,2.16,3,3,0,0,1,.38,1.37,7.9,7.9,0,0,1-1.75,4.37,6,6,0,0,1-4.61,2.54,5,5,0,0,1-3-.92,8.8,8.8,0,0,0-.37,2.46c0,1.91.75,3.16,1.91,3.16,4.16,0,8.49-6,10.69-11.07a2.11,2.11,0,0,1-1.16-1.82c0-2.21,2.78-5.24,4.2-5.29.87,0,1.2.54,1.2,1.46a12.49,12.49,0,0,1-.79,3.49,12.33,12.33,0,0,0,3.62-1.74c.66-.42,1.25-.71,1.74,0a5.25,5.25,0,0,1,1.25,2.87,2.36,2.36,0,0,1-.7,1.58,26.38,26.38,0,0,0-4.58,7,7.26,7.26,0,0,0-.29,1.79c0,1.08.33,1.79.92,1.79,1.49,0,3.86-2.54,5.11-5.45.37-.79,1-1,1.41,0A3.7,3.7,0,0,1,215.22,384.7Zm-23.37-4.49a2,2,0,0,0,.91.25c1.08,0,2.2-1.2,3-2.33,1.16-1.49,2.12-3.53,1.7-3.86-.75-.58-3.57,1.83-5.28,5.2A5.47,5.47,0,0,0,191.85,380.21Z" style="fill:#263238"></path></g><g id="freepik--beer-4--inject-7"><path d="M317.81,291.77s-.75-9.42-5.92-10.38a7.72,7.72,0,0,0-7.76,2.88s-4.74-4.81-8.61-4.33-5.61,4.33-5.61,4.33-4.3-3.37-6.89-1.92a8,8,0,0,0-3.45,3.85s-6.89-8.67-15.07-8.67-10.78,9.63-10.78,9.63-5.17-4.33-8.61-2.89l-3.45,1.45s-5.6-4.82-9.48-2.41-3.22,8.46-3.22,8.46Z" style="fill:#fff;stroke:#263238;stroke-miterlimit:10"></path><path d="M317.71,291.84H229.43c-.46,20.31-3.17,135.61-5,144-2.05,9.19.51,16.34,5.1,17.87,3.37,1.13,84.77,1.13,88.14,0,4.6-1.53,7.15-8.68,5.11-17.87C320.88,427.45,318.17,312.15,317.71,291.84Z" style="fill:#fff;stroke:#263238;stroke-miterlimit:10"></path><path d="M234.49,453.55s-2.52-1.81-2.52-6.5,1.8-11.54,1.8-11.54" style="fill:none;stroke:#263238;stroke-miterlimit:10"></path><path d="M244.32,440.11c.49-2.59,1-4.6,1-4.6" style="fill:none;stroke:#263238;stroke-miterlimit:10"></path><path d="M246.06,453.55s-2.53-1.81-2.53-6.5a28.3,28.3,0,0,1,.26-3.56" style="fill:none;stroke:#263238;stroke-miterlimit:10"></path><path d="M257.62,453.55s-2.53-1.81-2.53-6.5,1.81-11.54,1.81-11.54" style="fill:none;stroke:#263238;stroke-miterlimit:10"></path><path d="M267.79,438.39c.36-1.71.67-2.88.67-2.88" style="fill:none;stroke:#263238;stroke-miterlimit:10"></path><path d="M269.18,453.55s-2.52-1.81-2.52-6.5a38,38,0,0,1,.68-6.34" style="fill:none;stroke:#263238;stroke-miterlimit:10"></path><path d="M278.22,453.55s2.53-1.81,2.53-6.5-1.81-11.54-1.81-11.54" style="fill:none;stroke:#263238;stroke-miterlimit:10"></path><path d="M292.06,449.45a10.72,10.72,0,0,0,.25-2.4c0-4.69-1.8-11.54-1.8-11.54" style="fill:none;stroke:#263238;stroke-miterlimit:10"></path><path d="M289.78,453.55a6.09,6.09,0,0,0,1.81-2.58" style="fill:none;stroke:#263238;stroke-miterlimit:10"></path><path d="M301.35,453.55s2.52-1.81,2.52-6.5-1.8-11.54-1.8-11.54" style="fill:none;stroke:#263238;stroke-miterlimit:10"></path><path d="M312.91,453.55s2.53-1.81,2.53-6.5-1.81-11.54-1.81-11.54" style="fill:none;stroke:#263238;stroke-miterlimit:10"></path><path d="M322.18,430.46c-1.27-17.31-2.75-69.37-3.66-105.32H228.63c-.92,35.95-2.4,88-3.66,105.32Z" style="fill:#FFC107;stroke:#263238;stroke-miterlimit:10"></path><path d="M317.85,297.73c-.06-2.41-.11-4.41-.14-5.89H229.43c0,1.48-.08,3.48-.13,5.89Z" style="fill:#d4d4d4;stroke:#263238;stroke-miterlimit:10"></path><path d="M242.6,452.57c-4.53-1.51-7-8.56-5-17.62,1.83-8.26,4.51-121.94,5-142h-6.85c-.45,20-3.13,133.71-5,142-2,9.06.5,16.11,5,17.62C237.5,453.15,244.17,453.09,242.6,452.57Z" style="fill:#fff"></path><path d="M307.43,452.57c4.53-1.51,7.05-8.56,5-17.62-1.83-8.26-4.51-121.94-5-142h6.85c.45,20,3.13,133.71,5,142,2,9.06-.5,16.11-5,17.62C312.53,453.15,305.86,453.09,307.43,452.57Z" style="fill:#263238"></path><path d="M233.18,328.21c3.23-3.92.08-9.82-5-9.58-4.67.22-11.8.43-14.14-.24-3.58-1-8.17-5.62-13.28,2s-16.34,72-15.83,85.79c.42,11.38,28.88,22.28,38.79,25.74a3.07,3.07,0,0,0,4-2.32l.32-1.66a19.53,19.53,0,0,0,0-7.23l-.45-2.46a3.09,3.09,0,0,0-2.15-2.39c-5.88-1.76-24.3-7.61-27.3-12.75-3.57-6.13,6.64-61.27,8.68-68.42,1.62-5.67,15.44-4.92,21.09-4.36a5.9,5.9,0,0,0,5.05-2Z" style="fill:#fff;stroke:#263238;stroke-miterlimit:10"></path><path d="M250.82,336.42a3.05,3.05,0,1,1-3-3.05A3,3,0,0,1,250.82,336.42Z" style="fill:none;stroke:#fff;stroke-miterlimit:10"></path><circle cx="264.16" cy="360.05" r="3.05" style="fill:none;stroke:#fff;stroke-miterlimit:10"></circle><path d="M306.45,334.14a3,3,0,1,1-3-3.05A3,3,0,0,1,306.45,334.14Z" style="fill:none;stroke:#fff;stroke-miterlimit:10"></path><path d="M271,342.78a1.53,1.53,0,0,1-3.05,0,1.53,1.53,0,1,1,3.05,0Z" style="fill:none;stroke:#fff;stroke-miterlimit:10"></path><path d="M241.29,361.19a1.53,1.53,0,1,1-1.52-1.52A1.53,1.53,0,0,1,241.29,361.19Z" style="fill:none;stroke:#fff;stroke-miterlimit:10"></path><path d="M306.45,372.24a1.52,1.52,0,1,1-1.52-1.52A1.53,1.53,0,0,1,306.45,372.24Z" style="fill:none;stroke:#fff;stroke-miterlimit:10"></path></g><g id="freepik--beer-1--inject-7"><path d="M102.24,421.17c-5.34-8.54-8.24-42.89-.23-72.93s20.69-63.42,20-79.44c-.56-13.61-5.46-46.48-6.93-56.07H37.86c-1.46,9.59-6.36,42.46-6.93,56.07-.67,16,12,49.4,20,79.44s5.1,64.39-.24,72.93-6.41,15-4.27,18.16c0,0-4.07,12-2.69,15.22H109.2c1.39-3.24-2.68-15.22-2.68-15.22C108.65,436.13,107.58,429.72,102.24,421.17Z" style="fill:#fff;stroke:#263238;stroke-miterlimit:10"></path><path d="M122,268.8c-.31-7.52-2-20.94-3.6-33.05H34.53c-1.65,12.11-3.29,25.53-3.6,33.05-.67,16,12,49.4,20,79.44s5.1,64.39-.24,72.93-6.41,15-4.27,18.16c0,0-.16.48-.41,1.27h60.89c-.25-.79-.41-1.27-.41-1.27,2.13-3.2,1.06-9.61-4.28-18.16S94,378.28,102,348.24,122.7,284.82,122,268.8Z" style="fill:#FFC107;stroke:#263238;stroke-miterlimit:10"></path><path d="M54.57,421.67c-5.34,8.63-6.4,15.1-4.27,18.34,0,0-3.1,9.22-3,13.74h4.58c-.14-4.52,3-13.74,3-13.74-2.13-3.24-1.06-9.71,4.28-18.34s8.24-43.34.23-73.69-20.69-64.08-20-80.27c.56-13.75,5.47-47,6.93-56.66H41.72c-1.47,9.69-6.37,42.91-6.94,56.66-.66,16.19,12,49.91,20,80.27S59.91,413,54.57,421.67Z" style="fill:#fff"></path><path d="M97.36,440.16s3.09,9.1,3,13.59h4.57c.12-4.49-3-13.59-3-13.59,2.14-3.21,1.07-9.62-4.27-18.17s-8.25-42.93-.24-73,20.7-63.47,20-79.5c-.57-13.63-5.47-46.53-6.93-56.13h-4.58c1.47,9.6,6.37,42.5,6.94,56.13.66,16-12,49.44-20,79.5s-5.11,64.44.24,73S99.49,437,97.36,440.16Z" style="fill:#263238"></path><path d="M84.49,207.82a10.65,10.65,0,0,0-8.61-5.74c-6.15-.41-9,2.87-9,2.87s-4.52-3.28-7.8-1.64a10.39,10.39,0,0,0-4.51,4.1s-4.1-1.64-6.56.41l-2.46,2.05S43.48,205,39,207.82s-4.1,6.56-4.1,6.56-2,18.05-4.51,26.66-.41,14.36,4.92,12.72,7.39-7,7.8-14.36,1.64-13.94,4.1-18,0-4.11,7-1.23,14-7,14-7h47s2.61-4.1-2.31-7.79-11.48,0-11.48,0-1.64-3.28-8.2-4.1S84.49,207.82,84.49,207.82Z" style="fill:#fff;stroke:#263238;stroke-miterlimit:10"></path><path d="M84.87,250.24a3.05,3.05,0,1,1-3.05-3.05A3,3,0,0,1,84.87,250.24Z" style="fill:none;stroke:#fff;stroke-miterlimit:10"></path><path d="M74,270.12A3,3,0,1,1,71,267.07,3.06,3.06,0,0,1,74,270.12Z" style="fill:none;stroke:#fff;stroke-miterlimit:10"></path><path d="M98.42,275.57a1.35,1.35,0,1,1-1.35-1.35A1.36,1.36,0,0,1,98.42,275.57Z" style="fill:none;stroke:#fff;stroke-miterlimit:10"></path><path d="M55.91,251.38a1.53,1.53,0,1,1-1.52-1.52A1.52,1.52,0,0,1,55.91,251.38Z" style="fill:none;stroke:#fff;stroke-miterlimit:10"></path></g><g id="freepik--beer-2--inject-7"><path d="M143.9,343.71l2.48-25H67.31l2.49,25s-4.87,14.62-3.66,23.75a58.18,58.18,0,0,0,3.66,14.62l6.82,67.66a5.35,5.35,0,0,0,5.32,4.81h49.82a5.34,5.34,0,0,0,5.31-4.81l6.83-67.66a58.48,58.48,0,0,0,3.65-14.62C148.77,358.33,143.9,343.71,143.9,343.71Z" style="fill:#fff;stroke:#263238;stroke-miterlimit:10"></path><path d="M66.14,367.46a58.18,58.18,0,0,0,3.66,14.62L76.24,446h61.21l6.45-63.94a58.48,58.48,0,0,0,3.65-14.62c1.22-9.13-3.65-23.75-3.65-23.75l.54-5.48H69.25l.55,5.48S64.93,358.33,66.14,367.46Z" style="fill:#FFC107;stroke:#263238;stroke-miterlimit:10"></path><path d="M146.38,318.74s-.67-7.5-5.27-8.27a7.19,7.19,0,0,0-6.9,2.3s-4.22-3.83-7.67-3.45a6.75,6.75,0,0,0-5,3.45s-3.84-2.68-6.14-1.53a6.52,6.52,0,0,0-3.06,3.06s-6.14-6.9-13.42-6.9-9.59,7.67-9.59,7.67-4.6-3.45-7.66-2.3l-3.07,1.15s-5-3.83-8.44-1.92-2.87,6.74-2.87,6.74Z" style="fill:#fff;stroke:#263238;stroke-miterlimit:10"></path><path d="M115,348.17a3.05,3.05,0,1,1-3-3A3,3,0,0,1,115,348.17Z" style="fill:none;stroke:#fff;stroke-miterlimit:10"></path><path d="M104.11,368.05a3,3,0,1,1-3-3.05A3,3,0,0,1,104.11,368.05Z" style="fill:none;stroke:#fff;stroke-miterlimit:10"></path><path d="M128.52,373.5a1.35,1.35,0,1,1-1.35-1.35A1.36,1.36,0,0,1,128.52,373.5Z" style="fill:none;stroke:#fff;stroke-miterlimit:10"></path><path d="M86,349.32a1.52,1.52,0,1,1-1.52-1.53A1.52,1.52,0,0,1,86,349.32Z" style="fill:none;stroke:#fff;stroke-miterlimit:10"></path><path d="M85.39,446.06,79,382.34a55,55,0,0,1-3.44-13.76C74.37,360,79,346.22,79,346.22L76.62,322.7H72.43l2.34,23.52S70.18,360,71.33,368.58a55,55,0,0,0,3.44,13.76l6.43,63.72a5,5,0,0,0,5,4.53h4.19A5,5,0,0,1,85.39,446.06Z" style="fill:#fff"></path><path d="M129.5,446.06l6.42-63.72a54.73,54.73,0,0,0,3.45-13.76c1.14-8.6-3.45-22.36-3.45-22.36l2.34-23.52h4.2l-2.34,23.52s4.58,13.76,3.44,22.36a55,55,0,0,1-3.44,13.76l-6.43,63.72a5,5,0,0,1-5,4.53h-4.2A5,5,0,0,0,129.5,446.06Z" style="fill:#263238"></path></g><g id="freepik--Floor--inject-7"><line x1="20.67" y1="454.55" x2="478.25" y2="454.55" style="fill:none;stroke:#263238;stroke-miterlimit:10"></line></g></svg>