<?xml version="1.0" encoding="UTF-8" standalone="no"?>
<!DOCTYPE svg PUBLIC "-//W3C//DTD SVG 1.1//EN"
 "http://www.w3.org/Graphics/SVG/1.1/DTD/svg11.dtd">
<!-- Generated by graphviz version 2.47.3 (20210619.1520)
 -->
<!-- Title: dependencies Pages: 1 -->
<svg width="5413pt" height="247pt"
 viewBox="0.00 0.00 5413.00 246.80" xmlns="http://www.w3.org/2000/svg" xmlns:xlink="http://www.w3.org/1999/xlink">
<g id="graph0" class="graph" transform="scale(1 1) rotate(0) translate(4 242.8)">
<title>dependencies</title>
<polygon fill="white" stroke="transparent" points="-4,4 -4,-242.8 5409,-242.8 5409,4 -4,4"/>
<text text-anchor="middle" x="2702.5" y="-8.2" font-family="sans-serif" font-size="14.00">dependencies</text>
<g id="clust1" class="cluster">
<title>cluster_AppModule</title>
<polygon fill="none" stroke="black" stroke-dasharray="1,5" points="8,-32.8 8,-230.8 5397,-230.8 5397,-32.8 8,-32.8"/>
</g>
<g id="clust2" class="cluster">
<title>cluster_AppModule_declarations</title>
<polygon fill="none" stroke="black" points="310,-40.8 310,-92.8 5389,-92.8 5389,-40.8 310,-40.8"/>
</g>
<g id="clust33" class="cluster">
<title>cluster_AppModule_imports</title>
<polygon fill="none" stroke="black" points="158,-40.8 158,-92.8 302,-92.8 302,-40.8 158,-40.8"/>
</g>
<g id="clust35" class="cluster">
<title>cluster_AppModule_bootstrap</title>
<polygon fill="none" stroke="black" points="2495,-170.8 2495,-222.8 2619,-222.8 2619,-170.8 2495,-170.8"/>
</g>
<g id="clust36" class="cluster">
<title>cluster_AppModule_providers</title>
<polygon fill="none" stroke="black" points="16,-40.8 16,-92.8 150,-92.8 150,-40.8 16,-40.8"/>
</g>
<!-- AppComponent -->
<g id="node1" class="node">
<title>AppComponent</title>
<polygon fill="#ffffb3" stroke="black" points="5380.94,-84.8 5275.06,-84.8 5275.06,-48.8 5380.94,-48.8 5380.94,-84.8"/>
<text text-anchor="middle" x="5328" y="-62.6" font-family="Times,serif" font-size="14.00">AppComponent</text>
</g>
<!-- AppModule -->
<g id="node31" class="node">
<title>AppModule</title>
<polygon fill="#8dd3c7" stroke="black" points="2598.66,-149.8 2595.66,-153.8 2574.66,-153.8 2571.66,-149.8 2515.34,-149.8 2515.34,-113.8 2598.66,-113.8 2598.66,-149.8"/>
<text text-anchor="middle" x="2557" y="-127.6" font-family="Times,serif" font-size="14.00">AppModule</text>
</g>
<!-- AppComponent&#45;&gt;AppModule -->
<g id="edge1" class="edge">
<title>AppComponent&#45;&gt;AppModule</title>
<path fill="none" stroke="black" d="M5328,-85.18C5328,-109.08 5328,-147.8 5328,-147.8 5328,-147.8 2608.87,-147.8 2608.87,-147.8"/>
<polygon fill="black" stroke="black" points="2608.87,-144.3 2598.87,-147.8 2608.87,-151.3 2608.87,-144.3"/>
</g>
<!-- AtribuirCargoComponent -->
<g id="node2" class="node">
<title>AtribuirCargoComponent</title>
<polygon fill="#ffffb3" stroke="black" points="5257.14,-84.8 5096.86,-84.8 5096.86,-48.8 5257.14,-48.8 5257.14,-84.8"/>
<text text-anchor="middle" x="5177" y="-62.6" font-family="Times,serif" font-size="14.00">AtribuirCargoComponent</text>
</g>
<!-- AtribuirCargoComponent&#45;&gt;AppModule -->
<g id="edge2" class="edge">
<title>AtribuirCargoComponent&#45;&gt;AppModule</title>
<path fill="none" stroke="black" d="M5177,-85.12C5177,-108.46 5177,-145.8 5177,-145.8 5177,-145.8 2608.68,-145.8 2608.68,-145.8"/>
<polygon fill="black" stroke="black" points="2608.68,-142.3 2598.68,-145.8 2608.68,-149.3 2608.68,-142.3"/>
</g>
<!-- AtribuirCargoMentorComponent -->
<g id="node3" class="node">
<title>AtribuirCargoMentorComponent</title>
<polygon fill="#ffffb3" stroke="black" points="5078.85,-84.8 4877.15,-84.8 4877.15,-48.8 5078.85,-48.8 5078.85,-84.8"/>
<text text-anchor="middle" x="4978" y="-62.6" font-family="Times,serif" font-size="14.00">AtribuirCargoMentorComponent</text>
</g>
<!-- AtribuirCargoMentorComponent&#45;&gt;AppModule -->
<g id="edge3" class="edge">
<title>AtribuirCargoMentorComponent&#45;&gt;AppModule</title>
<path fill="none" stroke="black" d="M4978,-85.05C4978,-107.82 4978,-143.8 4978,-143.8 4978,-143.8 2608.77,-143.8 2608.77,-143.8"/>
<polygon fill="black" stroke="black" points="2608.77,-140.3 2598.77,-143.8 2608.77,-147.3 2608.77,-140.3"/>
</g>
<!-- BonificacaoMentorComponent -->
<g id="node4" class="node">
<title>BonificacaoMentorComponent</title>
<polygon fill="#ffffb3" stroke="black" points="4859.18,-84.8 4668.82,-84.8 4668.82,-48.8 4859.18,-48.8 4859.18,-84.8"/>
<text text-anchor="middle" x="4764" y="-62.6" font-family="Times,serif" font-size="14.00">BonificacaoMentorComponent</text>
</g>
<!-- BonificacaoMentorComponent&#45;&gt;AppModule -->
<g id="edge4" class="edge">
<title>BonificacaoMentorComponent&#45;&gt;AppModule</title>
<path fill="none" stroke="black" d="M4764,-85.09C4764,-107.01 4764,-140.8 4764,-140.8 4764,-140.8 2609.12,-140.8 2609.12,-140.8"/>
<polygon fill="black" stroke="black" points="2609.12,-137.3 2599.12,-140.8 2609.12,-144.3 2609.12,-137.3"/>
</g>
<!-- CadastrarBonificacaoComponent -->
<g id="node5" class="node">
<title>CadastrarBonificacaoComponent</title>
<polygon fill="#ffffb3" stroke="black" points="4651.11,-84.8 4448.89,-84.8 4448.89,-48.8 4651.11,-48.8 4651.11,-84.8"/>
<text text-anchor="middle" x="4550" y="-62.6" font-family="Times,serif" font-size="14.00">CadastrarBonificacaoComponent</text>
</g>
<!-- CadastrarBonificacaoComponent&#45;&gt;AppModule -->
<g id="edge5" class="edge">
<title>CadastrarBonificacaoComponent&#45;&gt;AppModule</title>
<path fill="none" stroke="black" d="M4550,-84.97C4550,-106.3 4550,-138.8 4550,-138.8 4550,-138.8 2609.09,-138.8 2609.09,-138.8"/>
<polygon fill="black" stroke="black" points="2609.09,-135.3 2599.09,-138.8 2609.09,-142.3 2609.09,-135.3"/>
</g>
<!-- CadastrarCargosComponent -->
<g id="node6" class="node">
<title>CadastrarCargosComponent</title>
<polygon fill="#ffffb3" stroke="black" points="4430.13,-84.8 4255.87,-84.8 4255.87,-48.8 4430.13,-48.8 4430.13,-84.8"/>
<text text-anchor="middle" x="4343" y="-62.6" font-family="Times,serif" font-size="14.00">CadastrarCargosComponent</text>
</g>
<!-- CadastrarCargosComponent&#45;&gt;AppModule -->
<g id="edge6" class="edge">
<title>CadastrarCargosComponent&#45;&gt;AppModule</title>
<path fill="none" stroke="black" d="M4343,-84.83C4343,-105.57 4343,-136.8 4343,-136.8 4343,-136.8 2608.95,-136.8 2608.95,-136.8"/>
<polygon fill="black" stroke="black" points="2608.95,-133.3 2598.95,-136.8 2608.95,-140.3 2608.95,-133.3"/>
</g>
<!-- CadastrarFuncComponent -->
<g id="node7" class="node">
<title>CadastrarFuncComponent</title>
<polygon fill="#ffffb3" stroke="black" points="4237.47,-84.8 4074.53,-84.8 4074.53,-48.8 4237.47,-48.8 4237.47,-84.8"/>
<text text-anchor="middle" x="4156" y="-62.6" font-family="Times,serif" font-size="14.00">CadastrarFuncComponent</text>
</g>
<!-- CadastrarFuncComponent&#45;&gt;AppModule -->
<g id="edge7" class="edge">
<title>CadastrarFuncComponent&#45;&gt;AppModule</title>
<path fill="none" stroke="black" d="M4156,-85.02C4156,-105.17 4156,-134.8 4156,-134.8 4156,-134.8 2608.95,-134.8 2608.95,-134.8"/>
<polygon fill="black" stroke="black" points="2608.95,-131.3 2598.95,-134.8 2608.95,-138.3 2608.95,-131.3"/>
</g>
<!-- CadastrarMentorComponent -->
<g id="node8" class="node">
<title>CadastrarMentorComponent</title>
<polygon fill="#ffffb3" stroke="black" points="4056.18,-84.8 3879.82,-84.8 3879.82,-48.8 4056.18,-48.8 4056.18,-84.8"/>
<text text-anchor="middle" x="3968" y="-62.6" font-family="Times,serif" font-size="14.00">CadastrarMentorComponent</text>
</g>
<!-- CadastrarMentorComponent&#45;&gt;AppModule -->
<g id="edge8" class="edge">
<title>CadastrarMentorComponent&#45;&gt;AppModule</title>
<path fill="none" stroke="black" d="M3968,-84.91C3968,-104.14 3968,-131.8 3968,-131.8 3968,-131.8 2608.85,-131.8 2608.85,-131.8"/>
<polygon fill="black" stroke="black" points="2608.85,-128.3 2598.85,-131.8 2608.85,-135.3 2608.85,-128.3"/>
</g>
<!-- CargosComponent -->
<g id="node9" class="node">
<title>CargosComponent</title>
<polygon fill="#ffffb3" stroke="black" points="3861.49,-84.8 3740.51,-84.8 3740.51,-48.8 3861.49,-48.8 3861.49,-84.8"/>
<text text-anchor="middle" x="3801" y="-62.6" font-family="Times,serif" font-size="14.00">CargosComponent</text>
</g>
<!-- CargosComponent&#45;&gt;AppModule -->
<g id="edge9" class="edge">
<title>CargosComponent&#45;&gt;AppModule</title>
<path fill="none" stroke="black" d="M3801,-85.02C3801,-103.63 3801,-129.8 3801,-129.8 3801,-129.8 2608.75,-129.8 2608.75,-129.8"/>
<polygon fill="black" stroke="black" points="2608.75,-126.3 2598.75,-129.8 2608.75,-133.3 2608.75,-126.3"/>
</g>
<!-- CpfPipe -->
<g id="node10" class="node">
<title>CpfPipe</title>
<polygon fill="#ffffb3" stroke="black" points="3722.89,-84.8 3661.11,-84.8 3661.11,-48.8 3722.89,-48.8 3722.89,-84.8"/>
<text text-anchor="middle" x="3692" y="-62.6" font-family="Times,serif" font-size="14.00">CpfPipe</text>
</g>
<!-- CpfPipe&#45;&gt;AppModule -->
<g id="edge10" class="edge">
<title>CpfPipe&#45;&gt;AppModule</title>
<path fill="none" stroke="black" d="M3692,-85.1C3692,-103.07 3692,-127.8 3692,-127.8 3692,-127.8 2608.74,-127.8 2608.74,-127.8"/>
<polygon fill="black" stroke="black" points="2608.74,-124.3 2598.74,-127.8 2608.74,-131.3 2608.74,-124.3"/>
</g>
<!-- EditarBonificacaoComponent -->
<g id="node11" class="node">
<title>EditarBonificacaoComponent</title>
<polygon fill="#ffffb3" stroke="black" points="3642.68,-84.8 3459.32,-84.8 3459.32,-48.8 3642.68,-48.8 3642.68,-84.8"/>
<text text-anchor="middle" x="3551" y="-62.6" font-family="Times,serif" font-size="14.00">EditarBonificacaoComponent</text>
</g>
<!-- EditarBonificacaoComponent&#45;&gt;AppModule -->
<g id="edge11" class="edge">
<title>EditarBonificacaoComponent&#45;&gt;AppModule</title>
<path fill="none" stroke="black" d="M3551,-84.82C3551,-102.17 3551,-125.8 3551,-125.8 3551,-125.8 2608.76,-125.8 2608.76,-125.8"/>
<polygon fill="black" stroke="black" points="2608.76,-122.3 2598.76,-125.8 2608.76,-129.3 2608.76,-122.3"/>
</g>
<!-- EditarCargosComponent -->
<g id="node12" class="node">
<title>EditarCargosComponent</title>
<polygon fill="#ffffb3" stroke="black" points="3441.7,-84.8 3286.3,-84.8 3286.3,-48.8 3441.7,-48.8 3441.7,-84.8"/>
<text text-anchor="middle" x="3364" y="-62.6" font-family="Times,serif" font-size="14.00">EditarCargosComponent</text>
</g>
<!-- EditarCargosComponent&#45;&gt;AppModule -->
<g id="edge12" class="edge">
<title>EditarCargosComponent&#45;&gt;AppModule</title>
<path fill="none" stroke="black" d="M3364,-84.83C3364,-101.2 3364,-122.8 3364,-122.8 3364,-122.8 2608.69,-122.8 2608.69,-122.8"/>
<polygon fill="black" stroke="black" points="2608.69,-119.3 2598.69,-122.8 2608.69,-126.3 2608.69,-119.3"/>
</g>
<!-- EditarFuncComponent -->
<g id="node13" class="node">
<title>EditarFuncComponent</title>
<polygon fill="#ffffb3" stroke="black" points="3268.54,-84.8 3125.46,-84.8 3125.46,-48.8 3268.54,-48.8 3268.54,-84.8"/>
<text text-anchor="middle" x="3197" y="-62.6" font-family="Times,serif" font-size="14.00">EditarFuncComponent</text>
</g>
<!-- EditarFuncComponent&#45;&gt;AppModule -->
<g id="edge13" class="edge">
<title>EditarFuncComponent&#45;&gt;AppModule</title>
<path fill="none" stroke="black" d="M3197,-85.08C3197,-100.75 3197,-120.8 3197,-120.8 3197,-120.8 2608.99,-120.8 2608.99,-120.8"/>
<polygon fill="black" stroke="black" points="2608.99,-117.3 2598.99,-120.8 2608.99,-124.3 2608.99,-117.3"/>
</g>
<!-- EditarMentorComponent -->
<g id="node14" class="node">
<title>EditarMentorComponent</title>
<polygon fill="#ffffb3" stroke="black" points="3107.25,-84.8 2950.75,-84.8 2950.75,-48.8 3107.25,-48.8 3107.25,-84.8"/>
<text text-anchor="middle" x="3029" y="-62.6" font-family="Times,serif" font-size="14.00">EditarMentorComponent</text>
</g>
<!-- EditarMentorComponent&#45;&gt;AppModule -->
<g id="edge14" class="edge">
<title>EditarMentorComponent&#45;&gt;AppModule</title>
<path fill="none" stroke="black" d="M3029,-84.99C3029,-99.98 3029,-118.8 3029,-118.8 3029,-118.8 2608.89,-118.8 2608.89,-118.8"/>
<polygon fill="black" stroke="black" points="2608.89,-115.3 2598.89,-118.8 2608.89,-122.3 2608.89,-115.3"/>
</g>
<!-- ExcluirBonificacaoComponent -->
<g id="node15" class="node">
<title>ExcluirBonificacaoComponent</title>
<polygon fill="#ffffb3" stroke="black" points="2933.18,-84.8 2742.82,-84.8 2742.82,-48.8 2933.18,-48.8 2933.18,-84.8"/>
<text text-anchor="middle" x="2838" y="-62.6" font-family="Times,serif" font-size="14.00">ExcluirBonificacaoComponent</text>
</g>
<!-- ExcluirBonificacaoComponent&#45;&gt;AppModule -->
<g id="edge15" class="edge">
<title>ExcluirBonificacaoComponent&#45;&gt;AppModule</title>
<path fill="none" stroke="black" d="M2838,-84.85C2838,-99.17 2838,-116.8 2838,-116.8 2838,-116.8 2608.77,-116.8 2608.77,-116.8"/>
<polygon fill="black" stroke="black" points="2608.77,-113.3 2598.77,-116.8 2608.77,-120.3 2608.77,-113.3"/>
</g>
<!-- ExcluirCargosComponent -->
<g id="node16" class="node">
<title>ExcluirCargosComponent</title>
<polygon fill="#ffffb3" stroke="black" points="2725.2,-84.8 2562.8,-84.8 2562.8,-48.8 2725.2,-48.8 2725.2,-84.8"/>
<text text-anchor="middle" x="2644" y="-62.6" font-family="Times,serif" font-size="14.00">ExcluirCargosComponent</text>
</g>
<!-- ExcluirCargosComponent&#45;&gt;AppModule -->
<g id="edge16" class="edge">
<title>ExcluirCargosComponent&#45;&gt;AppModule</title>
<path fill="none" stroke="black" d="M2580.86,-84.91C2580.86,-84.91 2580.86,-103.79 2580.86,-103.79"/>
<polygon fill="black" stroke="black" points="2577.36,-103.79 2580.86,-113.79 2584.36,-103.79 2577.36,-103.79"/>
</g>
<!-- ExcluirFuncComponent -->
<g id="node17" class="node">
<title>ExcluirFuncComponent</title>
<polygon fill="#ffffb3" stroke="black" points="2545.04,-84.8 2394.96,-84.8 2394.96,-48.8 2545.04,-48.8 2545.04,-84.8"/>
<text text-anchor="middle" x="2470" y="-62.6" font-family="Times,serif" font-size="14.00">ExcluirFuncComponent</text>
</g>
<!-- ExcluirFuncComponent&#45;&gt;AppModule -->
<g id="edge17" class="edge">
<title>ExcluirFuncComponent&#45;&gt;AppModule</title>
<path fill="none" stroke="black" d="M2530.22,-84.91C2530.22,-84.91 2530.22,-103.79 2530.22,-103.79"/>
<polygon fill="black" stroke="black" points="2526.72,-103.79 2530.22,-113.79 2533.72,-103.79 2526.72,-103.79"/>
</g>
<!-- ExcluirMentorComponent -->
<g id="node18" class="node">
<title>ExcluirMentorComponent</title>
<polygon fill="#ffffb3" stroke="black" points="2376.75,-84.8 2213.25,-84.8 2213.25,-48.8 2376.75,-48.8 2376.75,-84.8"/>
<text text-anchor="middle" x="2295" y="-62.6" font-family="Times,serif" font-size="14.00">ExcluirMentorComponent</text>
</g>
<!-- ExcluirMentorComponent&#45;&gt;AppModule -->
<g id="edge18" class="edge">
<title>ExcluirMentorComponent&#45;&gt;AppModule</title>
<path fill="none" stroke="black" d="M2295,-84.85C2295,-99.17 2295,-116.8 2295,-116.8 2295,-116.8 2505.2,-116.8 2505.2,-116.8"/>
<polygon fill="black" stroke="black" points="2505.2,-120.3 2515.2,-116.8 2505.2,-113.3 2505.2,-120.3"/>
</g>
<!-- FooterComponent -->
<g id="node19" class="node">
<title>FooterComponent</title>
<polygon fill="#ffffb3" stroke="black" points="2194.88,-84.8 2077.12,-84.8 2077.12,-48.8 2194.88,-48.8 2194.88,-84.8"/>
<text text-anchor="middle" x="2136" y="-62.6" font-family="Times,serif" font-size="14.00">FooterComponent</text>
</g>
<!-- FooterComponent&#45;&gt;AppModule -->
<g id="edge19" class="edge">
<title>FooterComponent&#45;&gt;AppModule</title>
<path fill="none" stroke="black" d="M2136,-84.99C2136,-99.98 2136,-118.8 2136,-118.8 2136,-118.8 2505.09,-118.8 2505.09,-118.8"/>
<polygon fill="black" stroke="black" points="2505.09,-122.3 2515.09,-118.8 2505.09,-115.3 2505.09,-122.3"/>
</g>
<!-- FuncionariosComponent -->
<g id="node20" class="node">
<title>FuncionariosComponent</title>
<polygon fill="#ffffb3" stroke="black" points="2059.43,-84.8 1904.57,-84.8 1904.57,-48.8 2059.43,-48.8 2059.43,-84.8"/>
<text text-anchor="middle" x="1982" y="-62.6" font-family="Times,serif" font-size="14.00">FuncionariosComponent</text>
</g>
<!-- FuncionariosComponent&#45;&gt;AppModule -->
<g id="edge20" class="edge">
<title>FuncionariosComponent&#45;&gt;AppModule</title>
<path fill="none" stroke="black" d="M1982,-85.08C1982,-100.75 1982,-120.8 1982,-120.8 1982,-120.8 2505.18,-120.8 2505.18,-120.8"/>
<polygon fill="black" stroke="black" points="2505.18,-124.3 2515.18,-120.8 2505.18,-117.3 2505.18,-124.3"/>
</g>
<!-- HeaderComponent -->
<g id="node21" class="node">
<title>HeaderComponent</title>
<polygon fill="#ffffb3" stroke="black" points="1886.74,-84.8 1765.26,-84.8 1765.26,-48.8 1886.74,-48.8 1886.74,-84.8"/>
<text text-anchor="middle" x="1826" y="-62.6" font-family="Times,serif" font-size="14.00">HeaderComponent</text>
</g>
<!-- HeaderComponent&#45;&gt;AppModule -->
<g id="edge21" class="edge">
<title>HeaderComponent&#45;&gt;AppModule</title>
<path fill="none" stroke="black" d="M1826,-84.83C1826,-101.2 1826,-122.8 1826,-122.8 1826,-122.8 2505.34,-122.8 2505.34,-122.8"/>
<polygon fill="black" stroke="black" points="2505.34,-126.3 2515.34,-122.8 2505.34,-119.3 2505.34,-126.3"/>
</g>
<!-- HeaderUserComponent -->
<g id="node22" class="node">
<title>HeaderUserComponent</title>
<polygon fill="#ffffb3" stroke="black" points="1747.17,-84.8 1598.83,-84.8 1598.83,-48.8 1747.17,-48.8 1747.17,-84.8"/>
<text text-anchor="middle" x="1673" y="-62.6" font-family="Times,serif" font-size="14.00">HeaderUserComponent</text>
</g>
<!-- HeaderUserComponent&#45;&gt;AppModule -->
<g id="edge22" class="edge">
<title>HeaderUserComponent&#45;&gt;AppModule</title>
<path fill="none" stroke="black" d="M1673,-84.82C1673,-102.17 1673,-125.8 1673,-125.8 1673,-125.8 2505.25,-125.8 2505.25,-125.8"/>
<polygon fill="black" stroke="black" points="2505.25,-129.3 2515.25,-125.8 2505.25,-122.3 2505.25,-129.3"/>
</g>
<!-- HomeComponent -->
<g id="node23" class="node">
<title>HomeComponent</title>
<polygon fill="#ffffb3" stroke="black" points="1580.55,-84.8 1465.45,-84.8 1465.45,-48.8 1580.55,-48.8 1580.55,-84.8"/>
<text text-anchor="middle" x="1523" y="-62.6" font-family="Times,serif" font-size="14.00">HomeComponent</text>
</g>
<!-- HomeComponent&#45;&gt;AppModule -->
<g id="edge23" class="edge">
<title>HomeComponent&#45;&gt;AppModule</title>
<path fill="none" stroke="black" d="M1523,-85.1C1523,-103.07 1523,-127.8 1523,-127.8 1523,-127.8 2505.19,-127.8 2505.19,-127.8"/>
<polygon fill="black" stroke="black" points="2505.19,-131.3 2515.19,-127.8 2505.19,-124.3 2505.19,-131.3"/>
</g>
<!-- ListaCargoComponent -->
<g id="node24" class="node">
<title>ListaCargoComponent</title>
<polygon fill="#ffffb3" stroke="black" points="1446.54,-84.8 1303.46,-84.8 1303.46,-48.8 1446.54,-48.8 1446.54,-84.8"/>
<text text-anchor="middle" x="1375" y="-62.6" font-family="Times,serif" font-size="14.00">ListaCargoComponent</text>
</g>
<!-- ListaCargoComponent&#45;&gt;AppModule -->
<g id="edge24" class="edge">
<title>ListaCargoComponent&#45;&gt;AppModule</title>
<path fill="none" stroke="black" d="M1375,-85.02C1375,-103.63 1375,-129.8 1375,-129.8 1375,-129.8 2505.28,-129.8 2505.28,-129.8"/>
<polygon fill="black" stroke="black" points="2505.28,-133.3 2515.28,-129.8 2505.28,-126.3 2505.28,-133.3"/>
</g>
<!-- ListaFuncCargoComponent -->
<g id="node25" class="node">
<title>ListaFuncCargoComponent</title>
<polygon fill="#ffffb3" stroke="black" points="1284.54,-84.8 1113.46,-84.8 1113.46,-48.8 1284.54,-48.8 1284.54,-84.8"/>
<text text-anchor="middle" x="1199" y="-62.6" font-family="Times,serif" font-size="14.00">ListaFuncCargoComponent</text>
</g>
<!-- ListaFuncCargoComponent&#45;&gt;AppModule -->
<g id="edge25" class="edge">
<title>ListaFuncCargoComponent&#45;&gt;AppModule</title>
<path fill="none" stroke="black" d="M1199,-84.91C1199,-104.14 1199,-131.8 1199,-131.8 1199,-131.8 2505.24,-131.8 2505.24,-131.8"/>
<polygon fill="black" stroke="black" points="2505.24,-135.3 2515.24,-131.8 2505.24,-128.3 2505.24,-135.3"/>
</g>
<!-- ListaFuncComponent -->
<g id="node26" class="node">
<title>ListaFuncComponent</title>
<polygon fill="#ffffb3" stroke="black" points="1095.82,-84.8 958.18,-84.8 958.18,-48.8 1095.82,-48.8 1095.82,-84.8"/>
<text text-anchor="middle" x="1027" y="-62.6" font-family="Times,serif" font-size="14.00">ListaFuncComponent</text>
</g>
<!-- ListaFuncComponent&#45;&gt;AppModule -->
<g id="edge26" class="edge">
<title>ListaFuncComponent&#45;&gt;AppModule</title>
<path fill="none" stroke="black" d="M1027,-85.02C1027,-105.17 1027,-134.8 1027,-134.8 1027,-134.8 2505.28,-134.8 2505.28,-134.8"/>
<polygon fill="black" stroke="black" points="2505.28,-138.3 2515.28,-134.8 2505.28,-131.3 2505.28,-138.3"/>
</g>
<!-- ListaMentorComponent -->
<g id="node27" class="node">
<title>ListaMentorComponent</title>
<polygon fill="#ffffb3" stroke="black" points="940.04,-84.8 789.96,-84.8 789.96,-48.8 940.04,-48.8 940.04,-84.8"/>
<text text-anchor="middle" x="865" y="-62.6" font-family="Times,serif" font-size="14.00">ListaMentorComponent</text>
</g>
<!-- ListaMentorComponent&#45;&gt;AppModule -->
<g id="edge27" class="edge">
<title>ListaMentorComponent&#45;&gt;AppModule</title>
<path fill="none" stroke="black" d="M865,-84.83C865,-105.57 865,-136.8 865,-136.8 865,-136.8 2505.18,-136.8 2505.18,-136.8"/>
<polygon fill="black" stroke="black" points="2505.18,-140.3 2515.18,-136.8 2505.18,-133.3 2505.18,-140.3"/>
</g>
<!-- LoginComponent -->
<g id="node28" class="node">
<title>LoginComponent</title>
<polygon fill="#ffffb3" stroke="black" points="771.28,-84.8 656.72,-84.8 656.72,-48.8 771.28,-48.8 771.28,-84.8"/>
<text text-anchor="middle" x="714" y="-62.6" font-family="Times,serif" font-size="14.00">LoginComponent</text>
</g>
<!-- LoginComponent&#45;&gt;AppModule -->
<g id="edge28" class="edge">
<title>LoginComponent&#45;&gt;AppModule</title>
<path fill="none" stroke="black" d="M714,-84.97C714,-106.3 714,-138.8 714,-138.8 714,-138.8 2505.04,-138.8 2505.04,-138.8"/>
<polygon fill="black" stroke="black" points="2505.04,-142.3 2515.04,-138.8 2505.04,-135.3 2505.04,-142.3"/>
</g>
<!-- MentoresCargoComponent -->
<g id="node29" class="node">
<title>MentoresCargoComponent</title>
<polygon fill="#ffffb3" stroke="black" points="638.41,-84.8 469.59,-84.8 469.59,-48.8 638.41,-48.8 638.41,-84.8"/>
<text text-anchor="middle" x="554" y="-62.6" font-family="Times,serif" font-size="14.00">MentoresCargoComponent</text>
</g>
<!-- MentoresCargoComponent&#45;&gt;AppModule -->
<g id="edge29" class="edge">
<title>MentoresCargoComponent&#45;&gt;AppModule</title>
<path fill="none" stroke="black" d="M554,-85.09C554,-107.01 554,-140.8 554,-140.8 554,-140.8 2505.16,-140.8 2505.16,-140.8"/>
<polygon fill="black" stroke="black" points="2505.16,-144.3 2515.16,-140.8 2505.16,-137.3 2505.16,-144.3"/>
</g>
<!-- MentoresComponent -->
<g id="node30" class="node">
<title>MentoresComponent</title>
<polygon fill="#ffffb3" stroke="black" points="452.2,-84.8 317.8,-84.8 317.8,-48.8 452.2,-48.8 452.2,-84.8"/>
<text text-anchor="middle" x="385" y="-62.6" font-family="Times,serif" font-size="14.00">MentoresComponent</text>
</g>
<!-- MentoresComponent&#45;&gt;AppModule -->
<g id="edge30" class="edge">
<title>MentoresComponent&#45;&gt;AppModule</title>
<path fill="none" stroke="black" d="M385,-85.05C385,-107.82 385,-143.8 385,-143.8 385,-143.8 2505.07,-143.8 2505.07,-143.8"/>
<polygon fill="black" stroke="black" points="2505.07,-147.3 2515.07,-143.8 2505.07,-140.3 2505.07,-147.3"/>
</g>
<!-- AppComponent  -->
<g id="node33" class="node">
<title>AppComponent </title>
<polygon fill="#80b1d3" stroke="black" points="2611.44,-214.8 2502.56,-214.8 2502.56,-178.8 2611.44,-178.8 2611.44,-214.8"/>
<text text-anchor="middle" x="2557" y="-192.6" font-family="Times,serif" font-size="14.00">AppComponent </text>
</g>
<!-- AppModule&#45;&gt;AppComponent  -->
<g id="edge32" class="edge">
<title>AppModule&#45;&gt;AppComponent </title>
<path fill="none" stroke="black" stroke-dasharray="1,5" d="M2557,-149.91C2557,-149.91 2557,-168.79 2557,-168.79"/>
<polygon fill="black" stroke="black" points="2553.5,-168.79 2557,-178.79 2560.5,-168.79 2553.5,-168.79"/>
</g>
<!-- AppRoutingModule -->
<g id="node32" class="node">
<title>AppRoutingModule</title>
<polygon fill="#8dd3c7" stroke="black" points="294.27,-84.8 291.27,-88.8 270.27,-88.8 267.27,-84.8 165.73,-84.8 165.73,-48.8 294.27,-48.8 294.27,-84.8"/>
<text text-anchor="middle" x="230" y="-62.6" font-family="Times,serif" font-size="14.00">AppRoutingModule</text>
</g>
<!-- AppRoutingModule&#45;&gt;AppModule -->
<g id="edge31" class="edge">
<title>AppRoutingModule&#45;&gt;AppModule</title>
<path fill="none" stroke="black" d="M230,-85.12C230,-108.46 230,-145.8 230,-145.8 230,-145.8 2505.12,-145.8 2505.12,-145.8"/>
<polygon fill="black" stroke="black" points="2505.12,-149.3 2515.12,-145.8 2505.12,-142.3 2505.12,-149.3"/>
</g>
<!-- AuthService -->
<g id="node34" class="node">
<title>AuthService</title>
<ellipse fill="#fdb462" stroke="black" cx="83" cy="-66.8" rx="59.11" ry="18"/>
<text text-anchor="middle" x="83" y="-62.6" font-family="Times,serif" font-size="14.00">AuthService</text>
</g>
<!-- AuthService&#45;&gt;AppModule -->
<g id="edge33" class="edge">
<title>AuthService&#45;&gt;AppModule</title>
<path fill="none" stroke="black" d="M83,-85.18C83,-109.08 83,-147.8 83,-147.8 83,-147.8 2505.1,-147.8 2505.1,-147.8"/>
<polygon fill="black" stroke="black" points="2505.1,-151.3 2515.1,-147.8 2505.1,-144.3 2505.1,-151.3"/>
</g>
</g>
</svg>
